<svg xmlns="http://www.w3.org/2000/svg" width="24" height="24" viewBox="0 0 24 24"><path fill="#64eb35" d="M12 2q-.327 0-.642.005l-.616.017l-.299.013l-.579.034l-.553.046c-4.785.464-6.732 2.411-7.196 7.196l-.046.553l-.034.579q-.008.147-.013.299l-.017.616l-.004.318L2 12q0 .327.005.642l.017.616l.013.299l.034.579l.046.553c.464 4.785 2.411 6.732 7.196 7.196l.553.046l.579.034q.147.008.299.013l.616.017L12 22l.642-.005l.616-.017l.299-.013l.579-.034l.553-.046c4.785-.464 6.732-2.411 7.196-7.196l.046-.553l.034-.579q.008-.147.013-.299l.017-.616L22 12l-.005-.642l-.017-.616l-.013-.299l-.034-.579l-.046-.553c-.464-4.785-2.411-6.732-7.196-7.196l-.553-.046l-.579-.034l-.299-.013l-.616-.017l-.318-.004zm2.293 7.293a1 1 0 0 1 1.497 1.32l-.083.094l-4 4a1 1 0 0 1-1.32.083l-.094-.083l-2-2a1 1 0 0 1 1.32-1.497l.094.083L11 12.585z"/></svg>