<svg xmlns="http://www.w3.org/2000/svg" xmlns:xlink="http://www.w3.org/1999/xlink" contentStyleType="text/css" data-diagram-type="ACTIVITY" height="761px" preserveAspectRatio="none" style="width:2419px;height:761px;background:#FFFFFF;" version="1.1" viewBox="0 0 2419 761" width="2419px" zoomAndPan="magnify"><title>Task Management Application - Activity Diagram</title><defs/><g><g class="title" data-source-line="1"><text fill="#000000" font-family="sans-serif" font-size="14" font-weight="bold" lengthAdjust="spacing" textLength="386.3672" x="1015.1396" y="32.9951">Task Management Application - Activity Diagram</text></g><ellipse cx="1216.8232" cy="57.2969" fill="#222222" rx="10" ry="10" style="stroke:#222222;stroke-width:1;"/><rect fill="#F1F1F1" height="33.9688" rx="12.5" ry="12.5" style="stroke:#181818;stroke-width:0.5;" width="198.752" x="1117.4473" y="87.2969"/><text fill="#000000" font-family="sans-serif" font-size="12" lengthAdjust="spacing" textLength="178.752" x="1127.4473" y="108.4355">User accesses the application</text><polygon fill="#F1F1F1" points="1174.1069,141.2656,1259.5396,141.2656,1271.5396,153.2656,1259.5396,165.2656,1174.1069,165.2656,1162.1069,153.2656,1174.1069,141.2656" style="stroke:#181818;stroke-width:0.5;"/><text fill="#000000" font-family="sans-serif" font-size="11" lengthAdjust="spacing" textLength="85.4326" x="1174.1069" y="157.0737">User logged in?</text><text fill="#000000" font-family="sans-serif" font-size="11" lengthAdjust="spacing" textLength="19.2178" x="1142.8892" y="150.6714">Yes</text><text fill="#000000" font-family="sans-serif" font-size="11" lengthAdjust="spacing" textLength="14.9585" x="1271.5396" y="150.6714">No</text><rect fill="#555555" height="6" rx="2.5" ry="2.5" style="stroke:#555555;stroke-width:1;" width="391.0547" x="862.9302" y="175.2656"/><rect fill="#F1F1F1" height="33.9688" rx="12.5" ry="12.5" style="stroke:#181818;stroke-width:0.5;" width="182.0703" x="876.9302" y="201.2656"/><text fill="#000000" font-family="sans-serif" font-size="12" lengthAdjust="spacing" textLength="162.0703" x="886.9302" y="222.4043">Fetch tasks from MongoDB</text><rect fill="#F1F1F1" height="33.9688" rx="12.5" ry="12.5" style="stroke:#181818;stroke-width:0.5;" width="152.9844" x="1087.0005" y="201.2656"/><text fill="#000000" font-family="sans-serif" font-size="12" lengthAdjust="spacing" textLength="132.9844" x="1097.0005" y="222.4043">Render tasks in the UI</text><rect fill="#555555" height="6" rx="2.5" ry="2.5" style="stroke:#555555;stroke-width:1;" width="391.0547" x="862.9302" y="255.2344"/><rect fill="#F1F1F1" height="33.9688" rx="12.5" ry="12.5" style="stroke:#181818;stroke-width:0.5;" width="202.4082" x="1273.9849" y="175.2656"/><text fill="#000000" font-family="sans-serif" font-size="12" lengthAdjust="spacing" textLength="182.4082" x="1283.9849" y="196.4043">Redirect to Login Page (/login)</text><ellipse cx="1375.189" cy="255.2344" fill="none" rx="11" ry="11" style="stroke:#222222;stroke-width:1;"/><ellipse cx="1375.189" cy="255.2344" fill="#222222" rx="6" ry="6" style="stroke:#222222;stroke-width:1;"/><rect fill="#F1F1F1" height="33.9688" rx="12.5" ry="12.5" style="stroke:#181818;stroke-width:0.5;" width="165.0664" x="1134.29" y="286.2344"/><text fill="#000000" font-family="sans-serif" font-size="12" lengthAdjust="spacing" textLength="145.0664" x="1144.29" y="307.373">User performs an action</text><polygon fill="#F1F1F1" points="1184.2637,340.2031,1249.3828,340.2031,1261.3828,352.2031,1249.3828,364.2031,1184.2637,364.2031,1172.2637,352.2031,1184.2637,340.2031" style="stroke:#181818;stroke-width:0.5;"/><text fill="#000000" font-family="sans-serif" font-size="11" lengthAdjust="spacing" textLength="65.1191" x="1184.2637" y="356.0112">Action Type</text><rect fill="#F1F1F1" height="33.9688" rx="12.5" ry="12.5" style="stroke:#181818;stroke-width:0.5;" width="227.0645" x="134.4307" y="399.8125"/><text fill="#000000" font-family="sans-serif" font-size="12" lengthAdjust="spacing" textLength="207.0645" x="144.4307" y="420.9512">User submits task details (/create)</text><rect fill="#F1F1F1" height="33.9688" rx="12.5" ry="12.5" style="stroke:#181818;stroke-width:0.5;" width="103.9707" x="195.9775" y="453.7813"/><text fill="#000000" font-family="sans-serif" font-size="12" lengthAdjust="spacing" textLength="83.9707" x="205.9775" y="474.9199">Validate input</text><rect fill="#F1F1F1" height="33.9688" rx="12.5" ry="12.5" style="stroke:#181818;stroke-width:0.5;" width="171.8398" x="162.043" y="522.75"/><text fill="#000000" font-family="sans-serif" font-size="12" lengthAdjust="spacing" textLength="151.8398" x="172.043" y="543.8887">Insert task into MongoDB</text><rect fill="#F1F1F1" height="33.9688" rx="12.5" ry="12.5" style="stroke:#181818;stroke-width:0.5;" width="473.9258" x="11" y="576.7188"/><text fill="#000000" font-family="sans-serif" font-size="12" lengthAdjust="spacing" textLength="453.9258" x="21" y="597.8574">Increment Prometheus metric (task_operations_total{operation="create"})</text><rect fill="#F1F1F1" height="33.9688" rx="12.5" ry="12.5" style="stroke:#181818;stroke-width:0.5;" width="190.127" x="152.8994" y="630.6875"/><text fill="#000000" font-family="sans-serif" font-size="12" lengthAdjust="spacing" textLength="170.127" x="162.8994" y="651.8262">Redirect to Dashboard (/list)</text><rect fill="#F1F1F1" height="33.9688" rx="12.5" ry="12.5" style="stroke:#181818;stroke-width:0.5;" width="309.9629" x="578.8701" y="399.8125"/><text fill="#000000" font-family="sans-serif" font-size="12" lengthAdjust="spacing" textLength="289.9629" x="588.8701" y="420.9512">User submits updated task details (/updatetask)</text><rect fill="#F1F1F1" height="33.9688" rx="12.5" ry="12.5" style="stroke:#181818;stroke-width:0.5;" width="103.9707" x="681.8662" y="453.7813"/><text fill="#000000" font-family="sans-serif" font-size="12" lengthAdjust="spacing" textLength="83.9707" x="691.8662" y="474.9199">Validate input</text><rect fill="#F1F1F1" height="33.9688" rx="12.5" ry="12.5" style="stroke:#181818;stroke-width:0.5;" width="168.834" x="649.4346" y="522.75"/><text fill="#000000" font-family="sans-serif" font-size="12" lengthAdjust="spacing" textLength="148.834" x="659.4346" y="543.8887">Update task in MongoDB</text><rect fill="#F1F1F1" height="33.9688" rx="12.5" ry="12.5" style="stroke:#181818;stroke-width:0.5;" width="477.8516" x="494.9258" y="576.7188"/><text fill="#000000" font-family="sans-serif" font-size="12" lengthAdjust="spacing" textLength="457.8516" x="504.9258" y="597.8574">Increment Prometheus metric (task_operations_total{operation="update"})</text><rect fill="#F1F1F1" height="33.9688" rx="12.5" ry="12.5" style="stroke:#181818;stroke-width:0.5;" width="190.127" x="638.7881" y="630.6875"/><text fill="#000000" font-family="sans-serif" font-size="12" lengthAdjust="spacing" textLength="170.127" x="648.7881" y="651.8262">Redirect to Dashboard (/list)</text><rect fill="#F1F1F1" height="33.9688" rx="12.5" ry="12.5" style="stroke:#181818;stroke-width:0.5;" width="247.9414" x="1105.4941" y="399.8125"/><text fill="#000000" font-family="sans-serif" font-size="12" lengthAdjust="spacing" textLength="227.9414" x="1115.4941" y="420.9512">User requests task deletion (/remove)</text><rect fill="#F1F1F1" height="33.9688" rx="12.5" ry="12.5" style="stroke:#181818;stroke-width:0.5;" width="164.0645" x="1147.4326" y="453.7813"/><text fill="#000000" font-family="sans-serif" font-size="12" lengthAdjust="spacing" textLength="144.0645" x="1157.4326" y="474.9199">Validate task ownership</text><rect fill="#F1F1F1" height="33.9688" rx="12.5" ry="12.5" style="stroke:#181818;stroke-width:0.5;" width="182.0527" x="1138.4385" y="522.75"/><text fill="#000000" font-family="sans-serif" font-size="12" lengthAdjust="spacing" textLength="162.0527" x="1148.4385" y="543.8887">Delete task from MongoDB</text><rect fill="#F1F1F1" height="33.9688" rx="12.5" ry="12.5" style="stroke:#181818;stroke-width:0.5;" width="473.375" x="992.7773" y="576.7188"/><text fill="#000000" font-family="sans-serif" font-size="12" lengthAdjust="spacing" textLength="453.375" x="1002.7773" y="597.8574">Increment Prometheus metric (task_operations_total{operation="delete"})</text><rect fill="#F1F1F1" height="33.9688" rx="12.5" ry="12.5" style="stroke:#181818;stroke-width:0.5;" width="190.127" x="1134.4014" y="630.6875"/><text fill="#000000" font-family="sans-serif" font-size="12" lengthAdjust="spacing" textLength="170.127" x="1144.4014" y="651.8262">Redirect to Dashboard (/list)</text><rect fill="#F1F1F1" height="33.9688" rx="12.5" ry="12.5" style="stroke:#181818;stroke-width:0.5;" width="238.3613" x="1588.5449" y="399.8125"/><text fill="#000000" font-family="sans-serif" font-size="12" lengthAdjust="spacing" textLength="218.3613" x="1598.5449" y="420.9512">User submits search query (/search)</text><rect fill="#555555" height="6" rx="2.5" ry="2.5" style="stroke:#555555;stroke-width:1;" width="443.1465" x="1486.1523" y="453.7813"/><rect fill="#F1F1F1" height="33.9688" rx="12.5" ry="12.5" style="stroke:#181818;stroke-width:0.5;" width="185.2695" x="1498.1523" y="479.7813"/><text fill="#000000" font-family="sans-serif" font-size="12" lengthAdjust="spacing" textLength="165.2695" x="1508.1523" y="500.9199">Query MongoDB with filters</text><rect fill="#F1F1F1" height="33.9688" rx="12.5" ry="12.5" style="stroke:#181818;stroke-width:0.5;" width="205.877" x="1711.4219" y="479.7813"/><text fill="#000000" font-family="sans-serif" font-size="12" lengthAdjust="spacing" textLength="185.877" x="1721.4219" y="500.9199">Render search results in the UI</text><rect fill="#555555" height="6" rx="2.5" ry="2.5" style="stroke:#555555;stroke-width:1;" width="443.1465" x="1486.1523" y="533.75"/><rect fill="#F1F1F1" height="33.9688" rx="12.5" ry="12.5" style="stroke:#181818;stroke-width:0.5;" width="212.3457" x="1939.2988" y="399.8125"/><text fill="#000000" font-family="sans-serif" font-size="12" lengthAdjust="spacing" textLength="192.3457" x="1949.2988" y="420.9512">User toggles task status (/done)</text><rect fill="#F1F1F1" height="33.9688" rx="12.5" ry="12.5" style="stroke:#181818;stroke-width:0.5;" width="209.5215" x="1940.7109" y="453.7813"/><text fill="#000000" font-family="sans-serif" font-size="12" lengthAdjust="spacing" textLength="189.5215" x="1950.7109" y="474.9199">Update task status in MongoDB</text><rect fill="#F1F1F1" height="33.9688" rx="12.5" ry="12.5" style="stroke:#181818;stroke-width:0.5;" width="190.127" x="1950.4082" y="522.75"/><text fill="#000000" font-family="sans-serif" font-size="12" lengthAdjust="spacing" textLength="170.127" x="1960.4082" y="543.8887">Redirect to Dashboard (/list)</text><rect fill="#F1F1F1" height="33.9688" rx="12.5" ry="12.5" style="stroke:#181818;stroke-width:0.5;" width="129.6055" x="2242.6396" y="399.8125"/><text fill="#000000" font-family="sans-serif" font-size="12" lengthAdjust="spacing" textLength="109.6055" x="2252.6396" y="420.9512">Clear user session</text><rect fill="#F1F1F1" height="33.9688" rx="12.5" ry="12.5" style="stroke:#181818;stroke-width:0.5;" width="202.4082" x="2206.2383" y="453.7813"/><text fill="#000000" font-family="sans-serif" font-size="12" lengthAdjust="spacing" textLength="182.4082" x="2216.2383" y="474.9199">Redirect to Login Page (/login)</text><polygon fill="#F1F1F1" points="1216.8232,684.6563,1216.8232,684.6563,1228.8232,696.6563,1216.8232,708.6563,1216.8232,708.6563,1204.8232,696.6563,1216.8232,684.6563" style="stroke:#181818;stroke-width:0.5;"/><ellipse cx="1216.8232" cy="739.6563" fill="none" rx="11" ry="11" style="stroke:#222222;stroke-width:1;"/><ellipse cx="1216.8232" cy="739.6563" fill="#222222" rx="6" ry="6" style="stroke:#222222;stroke-width:1;"/><line style="stroke:#181818;stroke-width:1;" x1="1216.8232" x2="1216.8232" y1="67.2969" y2="87.2969"/><polygon fill="#181818" points="1212.8232,77.2969,1216.8232,87.2969,1220.8232,77.2969,1216.8232,81.2969" style="stroke:#181818;stroke-width:1;"/><line style="stroke:#181818;stroke-width:1;" x1="967.9653" x2="967.9653" y1="181.2656" y2="201.2656"/><polygon fill="#181818" points="963.9653,191.2656,967.9653,201.2656,971.9653,191.2656,967.9653,195.2656" style="stroke:#181818;stroke-width:1;"/><line style="stroke:#181818;stroke-width:1;" x1="1163.4927" x2="1163.4927" y1="181.2656" y2="201.2656"/><polygon fill="#181818" points="1159.4927,191.2656,1163.4927,201.2656,1167.4927,191.2656,1163.4927,195.2656" style="stroke:#181818;stroke-width:1;"/><line style="stroke:#181818;stroke-width:1;" x1="967.9653" x2="967.9653" y1="235.2344" y2="255.2344"/><polygon fill="#181818" points="963.9653,245.2344,967.9653,255.2344,971.9653,245.2344,967.9653,249.2344" style="stroke:#181818;stroke-width:1;"/><line style="stroke:#181818;stroke-width:1;" x1="1163.4927" x2="1163.4927" y1="235.2344" y2="255.2344"/><polygon fill="#181818" points="1159.4927,245.2344,1163.4927,255.2344,1167.4927,245.2344,1163.4927,249.2344" style="stroke:#181818;stroke-width:1;"/><line style="stroke:#181818;stroke-width:1;" x1="1375.189" x2="1375.189" y1="209.2344" y2="244.2344"/><polygon fill="#181818" points="1371.189,234.2344,1375.189,244.2344,1379.189,234.2344,1375.189,238.2344" style="stroke:#181818;stroke-width:1;"/><line style="stroke:#181818;stroke-width:1;" x1="1162.1069" x2="1058.4575" y1="153.2656" y2="153.2656"/><line style="stroke:#181818;stroke-width:1;" x1="1058.4575" x2="1058.4575" y1="153.2656" y2="175.2656"/><polygon fill="#181818" points="1054.4575,165.2656,1058.4575,175.2656,1062.4575,165.2656,1058.4575,169.2656" style="stroke:#181818;stroke-width:1;"/><line style="stroke:#181818;stroke-width:1;" x1="1271.5396" x2="1375.189" y1="153.2656" y2="153.2656"/><line style="stroke:#181818;stroke-width:1;" x1="1375.189" x2="1375.189" y1="153.2656" y2="175.2656"/><polygon fill="#181818" points="1371.189,165.2656,1375.189,175.2656,1379.189,165.2656,1375.189,169.2656" style="stroke:#181818;stroke-width:1;"/><line style="stroke:#181818;stroke-width:1;" x1="1058.4575" x2="1058.4575" y1="261.2344" y2="271.2344"/><line style="stroke:#181818;stroke-width:1;" x1="1058.4575" x2="1216.8232" y1="271.2344" y2="271.2344"/><line style="stroke:#181818;stroke-width:1;" x1="1216.8232" x2="1216.8232" y1="271.2344" y2="286.2344"/><polygon fill="#181818" points="1212.8232,276.2344,1216.8232,286.2344,1220.8232,276.2344,1216.8232,280.2344" style="stroke:#181818;stroke-width:1;"/><line style="stroke:#181818;stroke-width:1;" x1="1216.8232" x2="1216.8232" y1="121.2656" y2="141.2656"/><polygon fill="#181818" points="1212.8232,131.2656,1216.8232,141.2656,1220.8232,131.2656,1216.8232,135.2656" style="stroke:#181818;stroke-width:1;"/><line style="stroke:#181818;stroke-width:1;" x1="247.9629" x2="247.9629" y1="433.7813" y2="453.7813"/><polygon fill="#181818" points="243.9629,443.7813,247.9629,453.7813,251.9629,443.7813,247.9629,447.7813" style="stroke:#181818;stroke-width:1;"/><line style="stroke:#181818;stroke-width:1;" x1="247.9629" x2="247.9629" y1="487.75" y2="522.75"/><polygon fill="#181818" points="243.9629,512.75,247.9629,522.75,251.9629,512.75,247.9629,516.75" style="stroke:#181818;stroke-width:1;"/><line style="stroke:#181818;stroke-width:1;" x1="247.9629" x2="247.9629" y1="556.7188" y2="576.7188"/><polygon fill="#181818" points="243.9629,566.7188,247.9629,576.7188,251.9629,566.7188,247.9629,570.7188" style="stroke:#181818;stroke-width:1;"/><line style="stroke:#181818;stroke-width:1;" x1="247.9629" x2="247.9629" y1="610.6875" y2="630.6875"/><polygon fill="#181818" points="243.9629,620.6875,247.9629,630.6875,251.9629,620.6875,247.9629,624.6875" style="stroke:#181818;stroke-width:1;"/><line style="stroke:#181818;stroke-width:1;" x1="733.8516" x2="733.8516" y1="433.7813" y2="453.7813"/><polygon fill="#181818" points="729.8516,443.7813,733.8516,453.7813,737.8516,443.7813,733.8516,447.7813" style="stroke:#181818;stroke-width:1;"/><line style="stroke:#181818;stroke-width:1;" x1="733.8516" x2="733.8516" y1="487.75" y2="522.75"/><polygon fill="#181818" points="729.8516,512.75,733.8516,522.75,737.8516,512.75,733.8516,516.75" style="stroke:#181818;stroke-width:1;"/><line style="stroke:#181818;stroke-width:1;" x1="733.8516" x2="733.8516" y1="556.7188" y2="576.7188"/><polygon fill="#181818" points="729.8516,566.7188,733.8516,576.7188,737.8516,566.7188,733.8516,570.7188" style="stroke:#181818;stroke-width:1;"/><line style="stroke:#181818;stroke-width:1;" x1="733.8516" x2="733.8516" y1="610.6875" y2="630.6875"/><polygon fill="#181818" points="729.8516,620.6875,733.8516,630.6875,737.8516,620.6875,733.8516,624.6875" style="stroke:#181818;stroke-width:1;"/><line style="stroke:#181818;stroke-width:1;" x1="1229.4648" x2="1229.4648" y1="433.7813" y2="453.7813"/><polygon fill="#181818" points="1225.4648,443.7813,1229.4648,453.7813,1233.4648,443.7813,1229.4648,447.7813" style="stroke:#181818;stroke-width:1;"/><line style="stroke:#181818;stroke-width:1;" x1="1229.4648" x2="1229.4648" y1="487.75" y2="522.75"/><polygon fill="#181818" points="1225.4648,512.75,1229.4648,522.75,1233.4648,512.75,1229.4648,516.75" style="stroke:#181818;stroke-width:1;"/><line style="stroke:#181818;stroke-width:1;" x1="1229.4648" x2="1229.4648" y1="556.7188" y2="576.7188"/><polygon fill="#181818" points="1225.4648,566.7188,1229.4648,576.7188,1233.4648,566.7188,1229.4648,570.7188" style="stroke:#181818;stroke-width:1;"/><line style="stroke:#181818;stroke-width:1;" x1="1229.4648" x2="1229.4648" y1="610.6875" y2="630.6875"/><polygon fill="#181818" points="1225.4648,620.6875,1229.4648,630.6875,1233.4648,620.6875,1229.4648,624.6875" style="stroke:#181818;stroke-width:1;"/><line style="stroke:#181818;stroke-width:1;" x1="1590.7871" x2="1590.7871" y1="459.7813" y2="479.7813"/><polygon fill="#181818" points="1586.7871,469.7813,1590.7871,479.7813,1594.7871,469.7813,1590.7871,473.7813" style="stroke:#181818;stroke-width:1;"/><line style="stroke:#181818;stroke-width:1;" x1="1814.3604" x2="1814.3604" y1="459.7813" y2="479.7813"/><polygon fill="#181818" points="1810.3604,469.7813,1814.3604,479.7813,1818.3604,469.7813,1814.3604,473.7813" style="stroke:#181818;stroke-width:1;"/><line style="stroke:#181818;stroke-width:1;" x1="1590.7871" x2="1590.7871" y1="513.75" y2="533.75"/><polygon fill="#181818" points="1586.7871,523.75,1590.7871,533.75,1594.7871,523.75,1590.7871,527.75" style="stroke:#181818;stroke-width:1;"/><line style="stroke:#181818;stroke-width:1;" x1="1814.3604" x2="1814.3604" y1="513.75" y2="533.75"/><polygon fill="#181818" points="1810.3604,523.75,1814.3604,533.75,1818.3604,523.75,1814.3604,527.75" style="stroke:#181818;stroke-width:1;"/><line style="stroke:#181818;stroke-width:1;" x1="1707.7256" x2="1707.7256" y1="433.7813" y2="453.7813"/><polygon fill="#181818" points="1703.7256,443.7813,1707.7256,453.7813,1711.7256,443.7813,1707.7256,447.7813" style="stroke:#181818;stroke-width:1;"/><line style="stroke:#181818;stroke-width:1;" x1="2045.4717" x2="2045.4717" y1="433.7813" y2="453.7813"/><polygon fill="#181818" points="2041.4717,443.7813,2045.4717,453.7813,2049.4717,443.7813,2045.4717,447.7813" style="stroke:#181818;stroke-width:1;"/><line style="stroke:#181818;stroke-width:1;" x1="2045.4717" x2="2045.4717" y1="487.75" y2="522.75"/><polygon fill="#181818" points="2041.4717,512.75,2045.4717,522.75,2049.4717,512.75,2045.4717,516.75" style="stroke:#181818;stroke-width:1;"/><line style="stroke:#181818;stroke-width:1;" x1="2307.4424" x2="2307.4424" y1="433.7813" y2="453.7813"/><polygon fill="#181818" points="2303.4424,443.7813,2307.4424,453.7813,2311.4424,443.7813,2307.4424,447.7813" style="stroke:#181818;stroke-width:1;"/><line style="stroke:#181818;stroke-width:1;" x1="1172.2637" x2="247.9629" y1="352.2031" y2="352.2031"/><line style="stroke:#181818;stroke-width:1;" x1="247.9629" x2="247.9629" y1="352.2031" y2="399.8125"/><polygon fill="#181818" points="243.9629,389.8125,247.9629,399.8125,251.9629,389.8125,247.9629,393.8125" style="stroke:#181818;stroke-width:1;"/><text fill="#000000" font-family="sans-serif" font-size="11" lengthAdjust="spacing" textLength="50.5474" x="247.9629" y="379.8159">Add Task</text><line style="stroke:#181818;stroke-width:1;" x1="1261.3828" x2="2307.4424" y1="352.2031" y2="352.2031"/><line style="stroke:#181818;stroke-width:1;" x1="2307.4424" x2="2307.4424" y1="352.2031" y2="399.8125"/><polygon fill="#181818" points="2303.4424,389.8125,2307.4424,399.8125,2311.4424,389.8125,2307.4424,393.8125" style="stroke:#181818;stroke-width:1;"/><text fill="#000000" font-family="sans-serif" font-size="11" lengthAdjust="spacing" textLength="37.8555" x="2307.4424" y="379.8159">Logout</text><line style="stroke:#181818;stroke-width:1;" x1="733.8516" x2="733.8516" y1="352.2031" y2="399.8125"/><polygon fill="#181818" points="729.8516,389.8125,733.8516,399.8125,737.8516,389.8125,733.8516,393.8125" style="stroke:#181818;stroke-width:1;"/><text fill="#000000" font-family="sans-serif" font-size="11" lengthAdjust="spacing" textLength="68.895" x="733.8516" y="374.8159">Update Task</text><line style="stroke:#181818;stroke-width:1;" x1="1216.8232" x2="1216.8232" y1="364.2031" y2="376.0729"/><line style="stroke:#181818;stroke-width:1;" x1="1216.8232" x2="1229.4648" y1="376.0729" y2="376.0729"/><line style="stroke:#181818;stroke-width:1;" x1="1229.4648" x2="1229.4648" y1="376.0729" y2="399.8125"/><polygon fill="#181818" points="1225.4648,389.8125,1229.4648,399.8125,1233.4648,389.8125,1229.4648,393.8125" style="stroke:#181818;stroke-width:1;"/><text fill="#000000" font-family="sans-serif" font-size="11" lengthAdjust="spacing" textLength="65.1997" x="1216.8232" y="380.8159">Delete Task</text><line style="stroke:#181818;stroke-width:1;" x1="1707.7256" x2="1707.7256" y1="352.2031" y2="399.8125"/><polygon fill="#181818" points="1703.7256,389.8125,1707.7256,399.8125,1711.7256,389.8125,1707.7256,393.8125" style="stroke:#181818;stroke-width:1;"/><text fill="#000000" font-family="sans-serif" font-size="11" lengthAdjust="spacing" textLength="67.0903" x="1707.7256" y="374.8159">Search Task</text><line style="stroke:#181818;stroke-width:1;" x1="2045.4717" x2="2045.4717" y1="352.2031" y2="399.8125"/><polygon fill="#181818" points="2041.4717,389.8125,2045.4717,399.8125,2049.4717,389.8125,2045.4717,393.8125" style="stroke:#181818;stroke-width:1;"/><text fill="#000000" font-family="sans-serif" font-size="11" lengthAdjust="spacing" textLength="150.7666" x="2045.4717" y="374.8159">Mark Task as Done/Undone</text><line style="stroke:#181818;stroke-width:1;" x1="247.9629" x2="247.9629" y1="664.6563" y2="696.6563"/><line style="stroke:#181818;stroke-width:1;" x1="247.9629" x2="1204.8232" y1="696.6563" y2="696.6563"/><polygon fill="#181818" points="1194.8232,692.6563,1204.8232,696.6563,1194.8232,700.6563,1198.8232,696.6563" style="stroke:#181818;stroke-width:1;"/><line style="stroke:#181818;stroke-width:1;" x1="2307.4424" x2="2307.4424" y1="487.75" y2="696.6563"/><line style="stroke:#181818;stroke-width:1;" x1="2307.4424" x2="1228.8232" y1="696.6563" y2="696.6563"/><polygon fill="#181818" points="1238.8232,692.6563,1228.8232,696.6563,1238.8232,700.6563,1234.8232,696.6563" style="stroke:#181818;stroke-width:1;"/><line style="stroke:#181818;stroke-width:1;" x1="733.8516" x2="733.8516" y1="664.6563" y2="696.6563"/><polygon fill="#181818" points="729.8516,686.6563,733.8516,696.6563,737.8516,686.6563,733.8516,690.6563" style="stroke:#181818;stroke-width:1;"/><line style="stroke:#181818;stroke-width:1;" x1="1229.4648" x2="1229.4648" y1="664.6563" y2="669.6563"/><line style="stroke:#181818;stroke-width:1;" x1="1229.4648" x2="1216.8232" y1="669.6563" y2="669.6563"/><line style="stroke:#181818;stroke-width:1;" x1="1216.8232" x2="1216.8232" y1="669.6563" y2="684.6563"/><polygon fill="#181818" points="1212.8232,674.6563,1216.8232,684.6563,1220.8232,674.6563,1216.8232,678.6563" style="stroke:#181818;stroke-width:1;"/><line style="stroke:#181818;stroke-width:1;" x1="1707.7256" x2="1707.7256" y1="539.75" y2="696.6563"/><polygon fill="#181818" points="1703.7256,686.6563,1707.7256,696.6563,1711.7256,686.6563,1707.7256,690.6563" style="stroke:#181818;stroke-width:1;"/><line style="stroke:#181818;stroke-width:1;" x1="2045.4717" x2="2045.4717" y1="556.7188" y2="696.6563"/><polygon fill="#181818" points="2041.4717,686.6563,2045.4717,696.6563,2049.4717,686.6563,2045.4717,690.6563" style="stroke:#181818;stroke-width:1;"/><line style="stroke:#181818;stroke-width:1;" x1="1216.8232" x2="1216.8232" y1="320.2031" y2="340.2031"/><polygon fill="#181818" points="1212.8232,330.2031,1216.8232,340.2031,1220.8232,330.2031,1216.8232,334.2031" style="stroke:#181818;stroke-width:1;"/><line style="stroke:#181818;stroke-width:1;" x1="1216.8232" x2="1216.8232" y1="708.6563" y2="728.6563"/><polygon fill="#181818" points="1212.8232,718.6563,1216.8232,728.6563,1220.8232,718.6563,1216.8232,722.6563" style="stroke:#181818;stroke-width:1;"/><!--SRC=[hLHDRnD13Btlhx1wsXnGxeaG2goGAX5Ke47YLBcxpcRKoSmozhQA4FyTpqURbYJG2dBPpFZPVi_sM8nOWala6rYYmvwsv0GMms1DYsAyWrUmQCNS6jb1Ox0FkAqg5WnILRCLKm1iMs8c1jaGuDvpNfarr0bYVTzJ1yQzcKIKW_eRyQG2_Qrzk4b_uc_sdgJTW2WTXdNmMrXwr_lcxVm12zYZSNkFp-GwpP1TZ4iaLkSPhwOSdomJr1zzJga-dGdK2eY73xvNhmjL3lNKniCaExFueT88PdqlTA2WqROCw5HqbiXt9ZAk5-aCbxk19bMBCTsYwr9XIz8KWiVhhH5ETA4ZGMDPyxQ1KAWaddr5QpezgvnXb79vxjHVigDnIln9PTIiCLBlBhHif5KO6VGRJ0jrTBhoIZ_rXQ_42zeV3nUlptB-iv_t31uNg47UN7iCNQoFOL5CrhSQ4ibJ4iTaxdwNcg_ZvH_bbk15xdyLcncyK6n3bew83VHz9DutL45n3EgfylEtXnrDC7_dAF363CLQOYVRuT3_ezh4wQLgln06dUfJhULiLkbXfwxvE9aVUS-V4gJe0Nqh6rWRAoh_ho-w90d4evNJJpiJNgB6ILiC6HhlQBfodNuUinTTGfPAgtI3oHZdCQ6E35q17CpUi-gdIyMFKfA_iwe4nbH0NPHfRJnl3Qd8l5_YnlN3Bm00]--></g></svg>