<svg xmlns="http://www.w3.org/2000/svg" xmlns:xlink="http://www.w3.org/1999/xlink" contentStyleType="text/css" data-diagram-type="SEQUENCE" height="524px" preserveAspectRatio="none" style="width:831px;height:524px;background:#FFFFFF;" version="1.1" viewBox="0 0 831 524" width="831px" zoomAndPan="magnify"><title>Add Task Sequence Diagram</title><defs/><g><text fill="#000000" font-family="sans-serif" font-size="14" font-weight="bold" lengthAdjust="spacing" textLength="225.791" x="303.8223" y="27.9951">Add Task Sequence Diagram</text><g><title>Flask App</title><rect fill="#FFFFFF" height="283.8672" style="stroke:#181818;stroke-width:1;" width="10" x="213.5107" y="149.7266"/></g><g><title>MongoDB</title><rect fill="#FFFFFF" height="29.1328" style="stroke:#181818;stroke-width:1;" width="10" x="569.9546" y="245.125"/></g><rect fill="none" height="219.7344" style="stroke:#000000;stroke-width:1.5;" width="814.4355" x="10" y="206.8594"/><g><title>User</title><rect fill="#000000" fill-opacity="0.00000" height="325" width="8" x="34.9551" y="118.5938"/><line style="stroke:#181818;stroke-width:0.5;stroke-dasharray:5.0,5.0;" x1="38" x2="38" y1="118.5938" y2="443.5938"/></g><g><title>Flask App</title><rect fill="#000000" fill-opacity="0.00000" height="325" width="8" x="214.5107" y="118.5938"/><line style="stroke:#181818;stroke-width:0.5;stroke-dasharray:5.0,5.0;" x1="217.6489" x2="217.6489" y1="118.5938" y2="443.5938"/></g><g><title>MongoDB</title><rect fill="#000000" fill-opacity="0.00000" height="325" width="8" x="570.9546" y="118.5938"/><line style="stroke:#181818;stroke-width:0.5;stroke-dasharray:5.0,5.0;" x1="574.2773" x2="574.2773" y1="118.5938" y2="443.5938"/></g><g><title>Prometheus Exporter</title><rect fill="#000000" fill-opacity="0.00000" height="325" width="8" x="703.0342" y="118.5938"/><line style="stroke:#181818;stroke-width:0.5;stroke-dasharray:5.0,5.0;" x1="706.6318" x2="706.6318" y1="118.5938" y2="443.5938"/></g><g class="participant participant-head" data-participant="User"><text fill="#000000" font-family="sans-serif" font-size="14" lengthAdjust="spacing" textLength="31.9102" x="20" y="115.292">User</text><ellipse cx="38.9551" cy="50.7969" fill="#E2E2F0" rx="8" ry="8" style="stroke:#181818;stroke-width:0.5;"/><path d="M38.9551,58.7969 L38.9551,85.7969 M25.9551,66.7969 L51.9551,66.7969 M38.9551,85.7969 L25.9551,100.7969 M38.9551,85.7969 L51.9551,100.7969" fill="none" style="stroke:#181818;stroke-width:0.5;"/></g><g class="participant participant-tail" data-participant="User"><text fill="#000000" font-family="sans-serif" font-size="14" lengthAdjust="spacing" textLength="31.9102" x="20" y="455.5889">User</text><ellipse cx="38.9551" cy="467.3906" fill="#E2E2F0" rx="8" ry="8" style="stroke:#181818;stroke-width:0.5;"/><path d="M38.9551,475.3906 L38.9551,502.3906 M25.9551,483.3906 L51.9551,483.3906 M38.9551,502.3906 L25.9551,517.3906 M38.9551,502.3906 L51.9551,517.3906" fill="none" style="stroke:#181818;stroke-width:0.5;"/></g><g class="participant participant-head" data-participant="Flask"><rect fill="#E2E2F0" height="30.2969" rx="2.5" ry="2.5" style="stroke:#181818;stroke-width:0.5;" width="81.7236" x="177.6489" y="87.2969"/><text fill="#000000" font-family="sans-serif" font-size="14" lengthAdjust="spacing" textLength="67.7236" x="184.6489" y="107.292">Flask App</text></g><g class="participant participant-tail" data-participant="Flask"><rect fill="#E2E2F0" height="30.2969" rx="2.5" ry="2.5" style="stroke:#181818;stroke-width:0.5;" width="81.7236" x="177.6489" y="442.5938"/><text fill="#000000" font-family="sans-serif" font-size="14" lengthAdjust="spacing" textLength="67.7236" x="184.6489" y="462.5889">Flask App</text></g><g class="participant participant-head" data-participant="Database"><rect fill="#E2E2F0" height="30.2969" rx="2.5" ry="2.5" style="stroke:#181818;stroke-width:0.5;" width="81.3545" x="534.2773" y="87.2969"/><text fill="#000000" font-family="sans-serif" font-size="14" lengthAdjust="spacing" textLength="67.3545" x="541.2773" y="107.292">MongoDB</text></g><g class="participant participant-tail" data-participant="Database"><rect fill="#E2E2F0" height="30.2969" rx="2.5" ry="2.5" style="stroke:#181818;stroke-width:0.5;" width="81.3545" x="534.2773" y="442.5938"/><text fill="#000000" font-family="sans-serif" font-size="14" lengthAdjust="spacing" textLength="67.3545" x="541.2773" y="462.5889">MongoDB</text></g><g class="participant participant-head" data-participant="Prometheus"><rect fill="#E2E2F0" height="30.2969" rx="2.5" ry="2.5" style="stroke:#181818;stroke-width:0.5;" width="162.8047" x="625.6318" y="87.2969"/><text fill="#000000" font-family="sans-serif" font-size="14" lengthAdjust="spacing" textLength="148.8047" x="632.6318" y="107.292">Prometheus Exporter</text></g><g class="participant participant-tail" data-participant="Prometheus"><rect fill="#E2E2F0" height="30.2969" rx="2.5" ry="2.5" style="stroke:#181818;stroke-width:0.5;" width="162.8047" x="625.6318" y="442.5938"/><text fill="#000000" font-family="sans-serif" font-size="14" lengthAdjust="spacing" textLength="148.8047" x="632.6318" y="462.5889">Prometheus Exporter</text></g><g><title>Flask App</title><rect fill="#FFFFFF" height="283.8672" style="stroke:#181818;stroke-width:1;" width="10" x="213.5107" y="149.7266"/></g><g><title>MongoDB</title><rect fill="#FFFFFF" height="29.1328" style="stroke:#181818;stroke-width:1;" width="10" x="569.9546" y="245.125"/></g><g class="message" data-participant-1="User" data-participant-2="Flask"><polygon fill="#181818" points="201.5107,145.7266,211.5107,149.7266,201.5107,153.7266,205.5107,149.7266" style="stroke:#181818;stroke-width:1;"/><line style="stroke:#181818;stroke-width:1;" x1="38.9551" x2="207.5107" y1="149.7266" y2="149.7266"/><text fill="#000000" font-family="sans-serif" font-size="13" lengthAdjust="spacing" textLength="155.5557" x="45.9551" y="144.6606">POST /list (Task Details)</text></g><g class="message" data-participant-1="Flask" data-participant-2="Flask"><line style="stroke:#181818;stroke-width:1;" x1="223.5107" x2="265.5107" y1="178.8594" y2="178.8594"/><line style="stroke:#181818;stroke-width:1;" x1="265.5107" x2="265.5107" y1="178.8594" y2="191.8594"/><line style="stroke:#181818;stroke-width:1;" x1="224.5107" x2="265.5107" y1="191.8594" y2="191.8594"/><polygon fill="#181818" points="234.5107,187.8594,224.5107,191.8594,234.5107,195.8594,230.5107,191.8594" style="stroke:#181818;stroke-width:1;"/><text fill="#000000" font-family="sans-serif" font-size="13" lengthAdjust="spacing" textLength="140.8926" x="230.5107" y="173.7935">Validate User Session</text></g><path d="M10,206.8594 L74.4429,206.8594 L74.4429,213.9922 L64.4429,223.9922 L10,223.9922 L10,206.8594" fill="#EEEEEE" style="stroke:#000000;stroke-width:1.5;"/><rect fill="none" height="219.7344" style="stroke:#000000;stroke-width:1.5;" width="814.4355" x="10" y="206.8594"/><text fill="#000000" font-family="sans-serif" font-size="13" font-weight="bold" lengthAdjust="spacing" textLength="19.4429" x="25" y="219.9263">alt</text><text fill="#000000" font-family="sans-serif" font-size="11" font-weight="bold" lengthAdjust="spacing" textLength="103.6514" x="89.4429" y="219.0698">[User Logged In]</text><g class="message" data-participant-1="Flask" data-participant-2="Database"><polygon fill="#181818" points="557.9546,241.125,567.9546,245.125,557.9546,249.125,561.9546,245.125" style="stroke:#181818;stroke-width:1;"/><line style="stroke:#181818;stroke-width:1;" x1="223.5107" x2="563.9546" y1="245.125" y2="245.125"/><text fill="#000000" font-family="sans-serif" font-size="13" lengthAdjust="spacing" textLength="327.4438" x="230.5107" y="240.0591">Insert Task (name, desc, date, priority, username)</text></g><g class="message" data-participant-1="Database" data-participant-2="Flask"><polygon fill="#181818" points="234.5107,270.2578,224.5107,274.2578,234.5107,278.2578,230.5107,274.2578" style="stroke:#181818;stroke-width:1;"/><line style="stroke:#181818;stroke-width:1;stroke-dasharray:2.0,2.0;" x1="228.5107" x2="573.9546" y1="274.2578" y2="274.2578"/><text fill="#000000" font-family="sans-serif" font-size="13" lengthAdjust="spacing" textLength="87.877" x="240.5107" y="269.1919">Task Inserted</text></g><g class="message" data-participant-1="Flask" data-participant-2="Prometheus"><polygon fill="#181818" points="695.0342,299.3906,705.0342,303.3906,695.0342,307.3906,699.0342,303.3906" style="stroke:#181818;stroke-width:1;"/><line style="stroke:#181818;stroke-width:1;" x1="223.5107" x2="701.0342" y1="303.3906" y2="303.3906"/><text fill="#000000" font-family="sans-serif" font-size="13" lengthAdjust="spacing" textLength="173.9448" x="230.5107" y="298.3247">Added Request for metrics</text></g><g class="message" data-participant-1="Prometheus" data-participant-2="Prometheus"><line style="stroke:#181818;stroke-width:1;stroke-dasharray:2.0,2.0;" x1="707.0342" x2="749.0342" y1="332.5234" y2="332.5234"/><line style="stroke:#181818;stroke-width:1;stroke-dasharray:2.0,2.0;" x1="749.0342" x2="749.0342" y1="332.5234" y2="345.5234"/><line style="stroke:#181818;stroke-width:1;stroke-dasharray:2.0,2.0;" x1="708.0342" x2="749.0342" y1="345.5234" y2="345.5234"/><polygon fill="#181818" points="718.0342,341.5234,708.0342,345.5234,718.0342,349.5234,714.0342,345.5234" style="stroke:#181818;stroke-width:1;"/><text fill="#000000" font-family="sans-serif" font-size="13" lengthAdjust="spacing" textLength="98.4014" x="714.0342" y="327.4575">Update Metrics</text></g><g class="message" data-participant-1="Flask" data-participant-2="User"><polygon fill="#181818" points="49.9551,370.6563,39.9551,374.6563,49.9551,378.6563,45.9551,374.6563" style="stroke:#181818;stroke-width:1;"/><line style="stroke:#181818;stroke-width:1;" x1="43.9551" x2="212.5107" y1="374.6563" y2="374.6563"/><text fill="#000000" font-family="sans-serif" font-size="13" lengthAdjust="spacing" textLength="99.271" x="55.9551" y="369.5903">Redirect to /list</text></g><line style="stroke:#000000;stroke-width:1;stroke-dasharray:2.0,2.0;" x1="10" x2="824.4355" y1="383.6563" y2="383.6563"/><text fill="#000000" font-family="sans-serif" font-size="11" font-weight="bold" lengthAdjust="spacing" textLength="129.5024" x="15" y="393.8667">[User Not Logged In]</text><g class="message" data-participant-1="Flask" data-participant-2="User"><polygon fill="#181818" points="49.9551,414.5938,39.9551,418.5938,49.9551,422.5938,45.9551,418.5938" style="stroke:#181818;stroke-width:1;"/><line style="stroke:#181818;stroke-width:1;" x1="43.9551" x2="212.5107" y1="418.5938" y2="418.5938"/><text fill="#000000" font-family="sans-serif" font-size="13" lengthAdjust="spacing" textLength="111.8457" x="55.9551" y="413.5278">Redirect to /login</text></g><!--SRC=[TL7BJWCn3BpdAwoUMgaLzpqW5Ir8I1Ggsd8t6xDOP9EGk0Z-dYJRThiySeWKUsOy6GkB8LXg3LkCRx2XzptPXg1cR0DsIc4ZBi0kKb0UWt337gt0vCPa_DBx2M24yXe3LiwshhugxHe5dp7I6B4EhYDvfNs4wq_lWb0ewA6kL1uCYyj-G0NhXyqMBWn7WManN9CWcpZBFla3XGvMLEzlO3wXOPtxHN53CRAp2etqXJlNjgJXrYf8vqG-6gzI9y6aJsbgiQCvQ8fDkfFe77nW5rY-vh1FkDoV5QMJhLC4kNfym68mM9JxAQGBIjDlzjZUa5ILTvW-y9WNcD9vIKjBhS1DB9Iph1S_Y3jVSbaTqEC9EPmggMeEr0Y8wzDNPE8Xodid_wNt5zcrR1LPhSv-LmZV]--></g></svg>