<?xml version="1.0" encoding="UTF-8" standalone="no"?><svg xmlns="http://www.w3.org/2000/svg" xmlns:xlink="http://www.w3.org/1999/xlink" contentStyleType="text/css" height="600px" preserveAspectRatio="none" style="width:310px;height:600px;background:#FFFFFF;" version="1.1" viewBox="0 0 310 600" width="310.5px" zoomAndPan="magnify"><defs/><g><!--MD5=[fbdf96a715d5f745ab36e3f461e5d224]
cluster MongoDB Database--><g id="cluster_MongoDB Database"><path d="M12.75,9 L242.25,9 A5.625,5.625 0 0 1 246,12.75 L256.5,42.4453 L296.25,42.4453 A3.75,3.75 0 0 1 300,46.1953 L300,585.75 A3.75,3.75 0 0 1 296.25,589.5 L12.75,589.5 A3.75,3.75 0 0 1 9,585.75 L9,12.75 A3.75,3.75 0 0 1 12.75,9 " fill="none" style="stroke:#000000;stroke-width:2.25;"/><line style="stroke:#000000;stroke-width:2.25;" x1="9" x2="256.5" y1="42.4453" y2="42.4453"/><text fill="#000000" font-family="sans-serif" font-size="21" font-weight="bold" lengthAdjust="spacing" textLength="228" x="15" y="31.4927">MongoDB Database</text></g><!--MD5=[09a5b4adb0ee554eafb73b413209c7bf]
class Users--><g id="elem_Users"><rect codeLine="4" fill="#F1F1F1" height="145.3359" id="Users" rx="3.75" ry="3.75" style="stroke:#181818;stroke-width:0.75;" width="217.5" x="45.75" y="61.5"/><ellipse cx="118.125" cy="85.5" fill="#ADD1B2" rx="16.5" ry="16.5" style="stroke:#181818;stroke-width:1.5;"/><path d="M122.5781,93.9609 Q121.7109,94.4063 120.75,94.6172 Q119.7891,94.8516 118.7344,94.8516 Q114.9844,94.8516 112.9922,92.3906 Q111.0234,89.9063 111.0234,85.2188 Q111.0234,80.5313 112.9922,78.0469 Q114.9844,75.5625 118.7344,75.5625 Q119.7891,75.5625 120.75,75.7969 Q121.7344,76.0313 122.5781,76.4766 L122.5781,80.5547 Q121.6406,79.6875 120.75,79.2891 Q119.8594,78.8672 118.9219,78.8672 Q116.9063,78.8672 115.875,80.4844 Q114.8438,82.0781 114.8438,85.2188 Q114.8438,88.3594 115.875,89.9766 Q116.9063,91.5703 118.9219,91.5703 Q119.8594,91.5703 120.75,91.1719 Q121.6406,90.75 122.5781,89.8828 L122.5781,93.9609 Z " fill="#000000"/><text fill="#000000" font-family="sans-serif" font-size="21" lengthAdjust="spacing" textLength="60" x="148.875" y="92.77">Users</text><line style="stroke:#181818;stroke-width:0.75;" x1="47.25" x2="261.75" y1="109.5" y2="109.5"/><ellipse cx="62.25" cy="129.9727" fill="none" rx="4.5" ry="4.5" style="stroke:#038048;stroke-width:1.5;"/><text fill="#000000" font-family="sans-serif" font-size="21" lengthAdjust="spacing" textLength="127.5" x="75.75" y="134.9927">_id: ObjectId</text><ellipse cx="62.25" cy="154.418" fill="none" rx="4.5" ry="4.5" style="stroke:#038048;stroke-width:1.5;"/><text fill="#000000" font-family="sans-serif" font-size="21" lengthAdjust="spacing" textLength="178.5" x="75.75" y="159.438">username: String</text><ellipse cx="62.25" cy="178.8633" fill="none" rx="4.5" ry="4.5" style="stroke:#038048;stroke-width:1.5;"/><text fill="#000000" font-family="sans-serif" font-size="21" lengthAdjust="spacing" textLength="174" x="75.75" y="183.8833">password: String</text><line style="stroke:#181818;stroke-width:0.75;" x1="47.25" x2="261.75" y1="194.8359" y2="194.8359"/></g><!--MD5=[2e018584496a2e668f691dcb29da1d9e]
class Tasks--><g id="elem_Tasks"><rect codeLine="10" fill="#F1F1F1" height="243.1172" id="Tasks" rx="3.75" ry="3.75" style="stroke:#181818;stroke-width:0.75;" width="243" x="33" y="322.5"/><ellipse cx="117.375" cy="346.5" fill="#ADD1B2" rx="16.5" ry="16.5" style="stroke:#181818;stroke-width:1.5;"/><path d="M121.8281,354.9609 Q120.9609,355.4063 120,355.6172 Q119.0391,355.8516 117.9844,355.8516 Q114.2344,355.8516 112.2422,353.3906 Q110.2734,350.9063 110.2734,346.2188 Q110.2734,341.5313 112.2422,339.0469 Q114.2344,336.5625 117.9844,336.5625 Q119.0391,336.5625 120,336.7969 Q120.9844,337.0313 121.8281,337.4766 L121.8281,341.5547 Q120.8906,340.6875 120,340.2891 Q119.1094,339.8672 118.1719,339.8672 Q116.1563,339.8672 115.125,341.4844 Q114.0938,343.0781 114.0938,346.2188 Q114.0938,349.3594 115.125,350.9766 Q116.1563,352.5703 118.1719,352.5703 Q119.1094,352.5703 120,352.1719 Q120.8906,351.75 121.8281,350.8828 L121.8281,354.9609 Z " fill="#000000"/><text fill="#000000" font-family="sans-serif" font-size="21" lengthAdjust="spacing" textLength="61.5" x="148.125" y="353.77">Tasks</text><line style="stroke:#181818;stroke-width:0.75;" x1="34.5" x2="274.5" y1="370.5" y2="370.5"/><ellipse cx="49.5" cy="390.9727" fill="none" rx="4.5" ry="4.5" style="stroke:#038048;stroke-width:1.5;"/><text fill="#000000" font-family="sans-serif" font-size="21" lengthAdjust="spacing" textLength="127.5" x="63" y="395.9927">_id: ObjectId</text><ellipse cx="49.5" cy="415.418" fill="none" rx="4.5" ry="4.5" style="stroke:#038048;stroke-width:1.5;"/><text fill="#000000" font-family="sans-serif" font-size="21" lengthAdjust="spacing" textLength="132" x="63" y="420.438">name: String</text><ellipse cx="49.5" cy="439.8633" fill="none" rx="4.5" ry="4.5" style="stroke:#038048;stroke-width:1.5;"/><text fill="#000000" font-family="sans-serif" font-size="21" lengthAdjust="spacing" textLength="124.5" x="63" y="444.8833">desc: String</text><ellipse cx="49.5" cy="464.3086" fill="none" rx="4.5" ry="4.5" style="stroke:#038048;stroke-width:1.5;"/><text fill="#000000" font-family="sans-serif" font-size="21" lengthAdjust="spacing" textLength="204" x="63" y="469.3286">creation_date: Date</text><ellipse cx="49.5" cy="488.7539" fill="none" rx="4.5" ry="4.5" style="stroke:#038048;stroke-width:1.5;"/><text fill="#000000" font-family="sans-serif" font-size="21" lengthAdjust="spacing" textLength="156" x="63" y="493.7739">priority: Integer</text><ellipse cx="49.5" cy="513.1992" fill="none" rx="4.5" ry="4.5" style="stroke:#038048;stroke-width:1.5;"/><text fill="#000000" font-family="sans-serif" font-size="21" lengthAdjust="spacing" textLength="153" x="63" y="518.2192">done: Boolean</text><ellipse cx="49.5" cy="537.6445" fill="none" rx="4.5" ry="4.5" style="stroke:#038048;stroke-width:1.5;"/><text fill="#000000" font-family="sans-serif" font-size="21" lengthAdjust="spacing" textLength="178.5" x="63" y="542.6646">username: String</text><line style="stroke:#181818;stroke-width:0.75;" x1="34.5" x2="274.5" y1="553.6172" y2="553.6172"/></g><!--MD5=[eee562dd0c5cb36dcf2a92e5dab62b81]
link Users to Tasks--><g id="link_Users_Tasks"><path codeLine="21" d="M154.5,207.285 C154.5,241.455 154.5,283.275 154.5,322.14 " fill="none" id="Users-Tasks" style="stroke:#181818;stroke-width:1.5;"/><text fill="#000000" font-family="sans-serif" font-size="19.5" lengthAdjust="spacing" textLength="48" x="156" y="271.6003">owns</text><text fill="#000000" font-family="sans-serif" font-size="19.5" lengthAdjust="spacing" textLength="12" x="141.6938" y="236.7355">1</text><text fill="#000000" font-family="sans-serif" font-size="19.5" lengthAdjust="spacing" textLength="34.5" x="118.4637" y="305.8889">0..*</text></g><!--MD5=[ea45e49e019eed9418241d7d9358301c]
@startuml
scale 1.5

package "MongoDB Database" {
    class Users {
        + _id: ObjectId
        + username: String
        + password: String
    }

    class Tasks {
        + _id: ObjectId
        + name: String
        + desc: String
        + creation_date: Date
        + priority: Integer
        + done: Boolean
        + username: String
    }
}

Users "1" - - "0..*" Tasks : owns
@enduml

PlantUML version 1.2022.7(Mon Aug 22 17:01:30 UTC 2022)
(GPL source distribution)
Java Runtime: OpenJDK Runtime Environment
JVM: OpenJDK 64-Bit Server VM
Default Encoding: UTF-8
Language: en
Country: null
--></g></svg>