<svg xmlns="http://www.w3.org/2000/svg" xmlns:xlink="http://www.w3.org/1999/xlink" contentStyleType="text/css" data-diagram-type="SEQUENCE" height="774px" preserveAspectRatio="none" style="width:1018px;height:774px;background:#FFFFFF;" version="1.1" viewBox="0 0 1018 774" width="1018px" zoomAndPan="magnify"><title>Signup Sequence Diagram</title><defs/><g><text fill="#000000" font-family="sans-serif" font-size="14" font-weight="bold" lengthAdjust="spacing" textLength="208.2568" x="406.2021" y="27.9951">Signup Sequence Diagram</text><g><title>Flask App</title><rect fill="#FFFFFF" height="533.7344" style="stroke:#181818;stroke-width:1;" width="10" x="430.0571" y="149.7266"/></g><g><title>MongoDB</title><rect fill="#FFFFFF" height="213.7344" style="stroke:#181818;stroke-width:1;" width="10" x="779.5039" y="245.125"/></g><rect fill="none" height="469.6016" style="stroke:#000000;stroke-width:1.5;" width="1001.6611" x="10" y="206.8594"/><rect fill="none" height="336.2656" style="stroke:#000000;stroke-width:1.5;" width="981.6611" x="20" y="260.125"/><g><title>User</title><rect fill="#000000" fill-opacity="0.00000" height="574.8672" width="8" x="44.9551" y="118.5938"/><line style="stroke:#181818;stroke-width:0.5;stroke-dasharray:5.0,5.0;" x1="48" x2="48" y1="118.5938" y2="693.4609"/></g><g><title>Flask App</title><rect fill="#000000" fill-opacity="0.00000" height="574.8672" width="8" x="431.0571" y="118.5938"/><line style="stroke:#181818;stroke-width:0.5;stroke-dasharray:5.0,5.0;" x1="434.1953" x2="434.1953" y1="118.5938" y2="693.4609"/></g><g><title>MongoDB</title><rect fill="#000000" fill-opacity="0.00000" height="574.8672" width="8" x="780.5039" y="118.5938"/><line style="stroke:#181818;stroke-width:0.5;stroke-dasharray:5.0,5.0;" x1="783.8267" x2="783.8267" y1="118.5938" y2="693.4609"/></g><g><title>Prometheus</title><rect fill="#000000" fill-opacity="0.00000" height="574.8672" width="8" x="880.2598" y="118.5938"/><line style="stroke:#181818;stroke-width:0.5;stroke-dasharray:5.0,5.0;" x1="884.1812" x2="884.1812" y1="118.5938" y2="693.4609"/></g><g class="participant participant-head" data-participant="User"><text fill="#000000" font-family="sans-serif" font-size="14" lengthAdjust="spacing" textLength="31.9102" x="30" y="115.292">User</text><ellipse cx="48.9551" cy="50.7969" fill="#E2E2F0" rx="8" ry="8" style="stroke:#181818;stroke-width:0.5;"/><path d="M48.9551,58.7969 L48.9551,85.7969 M35.9551,66.7969 L61.9551,66.7969 M48.9551,85.7969 L35.9551,100.7969 M48.9551,85.7969 L61.9551,100.7969" fill="none" style="stroke:#181818;stroke-width:0.5;"/></g><g class="participant participant-tail" data-participant="User"><text fill="#000000" font-family="sans-serif" font-size="14" lengthAdjust="spacing" textLength="31.9102" x="30" y="705.4561">User</text><ellipse cx="48.9551" cy="717.2578" fill="#E2E2F0" rx="8" ry="8" style="stroke:#181818;stroke-width:0.5;"/><path d="M48.9551,725.2578 L48.9551,752.2578 M35.9551,733.2578 L61.9551,733.2578 M48.9551,752.2578 L35.9551,767.2578 M48.9551,752.2578 L61.9551,767.2578" fill="none" style="stroke:#181818;stroke-width:0.5;"/></g><g class="participant participant-head" data-participant="Flask"><rect fill="#E2E2F0" height="30.2969" rx="2.5" ry="2.5" style="stroke:#181818;stroke-width:0.5;" width="81.7236" x="394.1953" y="87.2969"/><text fill="#000000" font-family="sans-serif" font-size="14" lengthAdjust="spacing" textLength="67.7236" x="401.1953" y="107.292">Flask App</text></g><g class="participant participant-tail" data-participant="Flask"><rect fill="#E2E2F0" height="30.2969" rx="2.5" ry="2.5" style="stroke:#181818;stroke-width:0.5;" width="81.7236" x="394.1953" y="692.4609"/><text fill="#000000" font-family="sans-serif" font-size="14" lengthAdjust="spacing" textLength="67.7236" x="401.1953" y="712.4561">Flask App</text></g><g class="participant participant-head" data-participant="Database"><rect fill="#E2E2F0" height="30.2969" rx="2.5" ry="2.5" style="stroke:#181818;stroke-width:0.5;" width="81.3545" x="743.8267" y="87.2969"/><text fill="#000000" font-family="sans-serif" font-size="14" lengthAdjust="spacing" textLength="67.3545" x="750.8267" y="107.292">MongoDB</text></g><g class="participant participant-tail" data-participant="Database"><rect fill="#E2E2F0" height="30.2969" rx="2.5" ry="2.5" style="stroke:#181818;stroke-width:0.5;" width="81.3545" x="743.8267" y="692.4609"/><text fill="#000000" font-family="sans-serif" font-size="14" lengthAdjust="spacing" textLength="67.3545" x="750.8267" y="712.4561">MongoDB</text></g><g class="participant participant-head" data-participant="Monitor"><rect fill="#E2E2F0" height="30.2969" rx="2.5" ry="2.5" style="stroke:#181818;stroke-width:0.5;" width="98.1572" x="835.1812" y="87.2969"/><text fill="#000000" font-family="sans-serif" font-size="14" lengthAdjust="spacing" textLength="84.1572" x="842.1812" y="107.292">Prometheus</text></g><g class="participant participant-tail" data-participant="Monitor"><rect fill="#E2E2F0" height="30.2969" rx="2.5" ry="2.5" style="stroke:#181818;stroke-width:0.5;" width="98.1572" x="835.1812" y="692.4609"/><text fill="#000000" font-family="sans-serif" font-size="14" lengthAdjust="spacing" textLength="84.1572" x="842.1812" y="712.4561">Prometheus</text></g><g><title>Flask App</title><rect fill="#FFFFFF" height="533.7344" style="stroke:#181818;stroke-width:1;" width="10" x="430.0571" y="149.7266"/></g><g><title>MongoDB</title><rect fill="#FFFFFF" height="213.7344" style="stroke:#181818;stroke-width:1;" width="10" x="779.5039" y="245.125"/></g><g class="message" data-participant-1="User" data-participant-2="Flask"><polygon fill="#181818" points="418.0571,145.7266,428.0571,149.7266,418.0571,153.7266,422.0571,149.7266" style="stroke:#181818;stroke-width:1;"/><line style="stroke:#181818;stroke-width:1;" x1="48.9551" x2="424.0571" y1="149.7266" y2="149.7266"/><text fill="#000000" font-family="sans-serif" font-size="13" lengthAdjust="spacing" textLength="362.1021" x="55.9551" y="144.6606">POST /signup (username, password, confirm_password)</text></g><g class="message" data-participant-1="Flask" data-participant-2="Flask"><line style="stroke:#181818;stroke-width:1;" x1="440.0571" x2="482.0571" y1="178.8594" y2="178.8594"/><line style="stroke:#181818;stroke-width:1;" x1="482.0571" x2="482.0571" y1="178.8594" y2="191.8594"/><line style="stroke:#181818;stroke-width:1;" x1="441.0571" x2="482.0571" y1="191.8594" y2="191.8594"/><polygon fill="#181818" points="451.0571,187.8594,441.0571,191.8594,451.0571,195.8594,447.0571,191.8594" style="stroke:#181818;stroke-width:1;"/><text fill="#000000" font-family="sans-serif" font-size="13" lengthAdjust="spacing" textLength="315.4468" x="447.0571" y="173.7935">Validate Input (password == confirm_password)</text></g><path d="M10,206.8594 L74.4429,206.8594 L74.4429,213.9922 L64.4429,223.9922 L10,223.9922 L10,206.8594" fill="#EEEEEE" style="stroke:#000000;stroke-width:1.5;"/><rect fill="none" height="469.6016" style="stroke:#000000;stroke-width:1.5;" width="1001.6611" x="10" y="206.8594"/><text fill="#000000" font-family="sans-serif" font-size="13" font-weight="bold" lengthAdjust="spacing" textLength="19.4429" x="25" y="219.9263">alt</text><text fill="#000000" font-family="sans-serif" font-size="11" font-weight="bold" lengthAdjust="spacing" textLength="118.0083" x="89.4429" y="219.0698">[Passwords Match]</text><g class="message" data-participant-1="Flask" data-participant-2="Database"><polygon fill="#181818" points="767.5039,241.125,777.5039,245.125,767.5039,249.125,771.5039,245.125" style="stroke:#181818;stroke-width:1;"/><line style="stroke:#181818;stroke-width:1;" x1="440.0571" x2="773.5039" y1="245.125" y2="245.125"/><text fill="#000000" font-family="sans-serif" font-size="13" lengthAdjust="spacing" textLength="165.2358" x="447.0571" y="240.0591">Check if Username Exists</text></g><path d="M20,260.125 L84.4429,260.125 L84.4429,267.2578 L74.4429,277.2578 L20,277.2578 L20,260.125" fill="#EEEEEE" style="stroke:#000000;stroke-width:1.5;"/><rect fill="none" height="336.2656" style="stroke:#000000;stroke-width:1.5;" width="981.6611" x="20" y="260.125"/><text fill="#000000" font-family="sans-serif" font-size="13" font-weight="bold" lengthAdjust="spacing" textLength="19.4429" x="35" y="273.1919">alt</text><text fill="#000000" font-family="sans-serif" font-size="11" font-weight="bold" lengthAdjust="spacing" textLength="113.1582" x="99.4429" y="272.3354">[Username Exists]</text><g class="message" data-participant-1="Database" data-participant-2="Flask"><polygon fill="#181818" points="451.0571,294.3906,441.0571,298.3906,451.0571,302.3906,447.0571,298.3906" style="stroke:#181818;stroke-width:1;"/><line style="stroke:#181818;stroke-width:1;stroke-dasharray:2.0,2.0;" x1="445.0571" x2="778.5039" y1="298.3906" y2="298.3906"/><text fill="#000000" font-family="sans-serif" font-size="13" lengthAdjust="spacing" textLength="110.792" x="457.0571" y="293.3247">Username Found</text></g><g class="message" data-participant-1="Flask" data-participant-2="User"><polygon fill="#181818" points="59.9551,323.5234,49.9551,327.5234,59.9551,331.5234,55.9551,327.5234" style="stroke:#181818;stroke-width:1;"/><line style="stroke:#181818;stroke-width:1;" x1="53.9551" x2="429.0571" y1="327.5234" y2="327.5234"/><text fill="#000000" font-family="sans-serif" font-size="13" lengthAdjust="spacing" textLength="216.9121" x="65.9551" y="322.4575">Flash "Username already exists!"</text></g><g class="message" data-participant-1="Flask" data-participant-2="User"><polygon fill="#181818" points="59.9551,352.6563,49.9551,356.6563,59.9551,360.6563,55.9551,356.6563" style="stroke:#181818;stroke-width:1;"/><line style="stroke:#181818;stroke-width:1;" x1="53.9551" x2="429.0571" y1="356.6563" y2="356.6563"/><text fill="#000000" font-family="sans-serif" font-size="13" lengthAdjust="spacing" textLength="123.5444" x="65.9551" y="351.5903">Redirect to /signup</text></g><line style="stroke:#000000;stroke-width:1;stroke-dasharray:2.0,2.0;" x1="20" x2="1001.6611" y1="365.6563" y2="365.6563"/><text fill="#000000" font-family="sans-serif" font-size="11" font-weight="bold" lengthAdjust="spacing" textLength="166.9873" x="25" y="375.8667">[Username Does Not Exist]</text><g class="message" data-participant-1="Database" data-participant-2="Flask"><polygon fill="#181818" points="451.0571,396.5938,441.0571,400.5938,451.0571,404.5938,447.0571,400.5938" style="stroke:#181818;stroke-width:1;"/><line style="stroke:#181818;stroke-width:1;stroke-dasharray:2.0,2.0;" x1="445.0571" x2="778.5039" y1="400.5938" y2="400.5938"/><text fill="#000000" font-family="sans-serif" font-size="13" lengthAdjust="spacing" textLength="137.6997" x="457.0571" y="395.5278">Username Not Found</text></g><g class="message" data-participant-1="Flask" data-participant-2="Database"><polygon fill="#181818" points="767.5039,425.7266,777.5039,429.7266,767.5039,433.7266,771.5039,429.7266" style="stroke:#181818;stroke-width:1;"/><line style="stroke:#181818;stroke-width:1;" x1="440.0571" x2="773.5039" y1="429.7266" y2="429.7266"/><text fill="#000000" font-family="sans-serif" font-size="13" lengthAdjust="spacing" textLength="253.2461" x="447.0571" y="424.6606">Insert New User (username, password)</text></g><g class="message" data-participant-1="Database" data-participant-2="Flask"><polygon fill="#181818" points="451.0571,454.8594,441.0571,458.8594,451.0571,462.8594,447.0571,458.8594" style="stroke:#181818;stroke-width:1;"/><line style="stroke:#181818;stroke-width:1;stroke-dasharray:2.0,2.0;" x1="445.0571" x2="783.5039" y1="458.8594" y2="458.8594"/><text fill="#000000" font-family="sans-serif" font-size="13" lengthAdjust="spacing" textLength="87.2993" x="457.0571" y="453.7935">User Inserted</text></g><g class="message" data-participant-1="Flask" data-participant-2="Monitor"><polygon fill="#181818" points="872.2598,483.9922,882.2598,487.9922,872.2598,491.9922,876.2598,487.9922" style="stroke:#181818;stroke-width:1;"/><line style="stroke:#181818;stroke-width:1;" x1="440.0571" x2="878.2598" y1="487.9922" y2="487.9922"/><text fill="#000000" font-family="sans-serif" font-size="13" lengthAdjust="spacing" textLength="348.0039" x="447.0571" y="482.9263">increment task_management_app_http_request_total</text></g><g class="message" data-participant-1="Monitor" data-participant-2="Monitor"><line style="stroke:#181818;stroke-width:1;stroke-dasharray:2.0,2.0;" x1="884.2598" x2="926.2598" y1="517.125" y2="517.125"/><line style="stroke:#181818;stroke-width:1;stroke-dasharray:2.0,2.0;" x1="926.2598" x2="926.2598" y1="517.125" y2="530.125"/><line style="stroke:#181818;stroke-width:1;stroke-dasharray:2.0,2.0;" x1="885.2598" x2="926.2598" y1="530.125" y2="530.125"/><polygon fill="#181818" points="895.2598,526.125,885.2598,530.125,895.2598,534.125,891.2598,530.125" style="stroke:#181818;stroke-width:1;"/><text fill="#000000" font-family="sans-serif" font-size="13" lengthAdjust="spacing" textLength="98.4014" x="891.2598" y="512.0591">Update Metrics</text></g><g class="message" data-participant-1="Flask" data-participant-2="User"><polygon fill="#181818" points="59.9551,555.2578,49.9551,559.2578,59.9551,563.2578,55.9551,559.2578" style="stroke:#181818;stroke-width:1;"/><line style="stroke:#181818;stroke-width:1;" x1="53.9551" x2="429.0571" y1="559.2578" y2="559.2578"/><text fill="#000000" font-family="sans-serif" font-size="13" lengthAdjust="spacing" textLength="262.0122" x="65.9551" y="554.1919">Flash "Signup successful! Please log in."</text></g><g class="message" data-participant-1="Flask" data-participant-2="User"><polygon fill="#181818" points="59.9551,584.3906,49.9551,588.3906,59.9551,592.3906,55.9551,588.3906" style="stroke:#181818;stroke-width:1;"/><line style="stroke:#181818;stroke-width:1;" x1="53.9551" x2="429.0571" y1="588.3906" y2="588.3906"/><text fill="#000000" font-family="sans-serif" font-size="13" lengthAdjust="spacing" textLength="111.8457" x="65.9551" y="583.3247">Redirect to /login</text></g><line style="stroke:#000000;stroke-width:1;stroke-dasharray:2.0,2.0;" x1="10" x2="1011.6611" y1="604.3906" y2="604.3906"/><text fill="#000000" font-family="sans-serif" font-size="11" font-weight="bold" lengthAdjust="spacing" textLength="164.377" x="15" y="614.6011">[Passwords Do Not Match]</text><g class="message" data-participant-1="Flask" data-participant-2="User"><polygon fill="#181818" points="59.9551,635.3281,49.9551,639.3281,59.9551,643.3281,55.9551,639.3281" style="stroke:#181818;stroke-width:1;"/><line style="stroke:#181818;stroke-width:1;" x1="53.9551" x2="429.0571" y1="639.3281" y2="639.3281"/><text fill="#000000" font-family="sans-serif" font-size="13" lengthAdjust="spacing" textLength="214.6841" x="65.9551" y="634.2622">Flash "Passwords do not match!"</text></g><g class="message" data-participant-1="Flask" data-participant-2="User"><polygon fill="#181818" points="59.9551,664.4609,49.9551,668.4609,59.9551,672.4609,55.9551,668.4609" style="stroke:#181818;stroke-width:1;"/><line style="stroke:#181818;stroke-width:1;" x1="53.9551" x2="429.0571" y1="668.4609" y2="668.4609"/><text fill="#000000" font-family="sans-serif" font-size="13" lengthAdjust="spacing" textLength="123.5444" x="65.9551" y="663.395">Redirect to /signup</text></g><!--SRC=[ZPFBJkmm38RtVGepAv2ux4S2wHmA4WjWn03RoYVrj15f4XANozkJf6rwHWnYkalz-_SNss79Yc0j6zrRMDDhJreGb18RXrrHe63ZuCcJAomwba9Qr0oBQuN-1VvOkm3qa4xRWbkZ6rF-JU4I6V-Xfst5ofcEkANU9r58aA5MKSHYS78nc2vXTRz-X3C_01xs8QYnesEmwFsxSVKn2ACtqdNLzESeKiitP1h1Ye5szdn69UiOlz6sPpYSCk7yV9URObYDfy29BDe2mfTTf_ijuR8byG9oapeMEU7gGthsIP-fSZ_It-2-Ins_IGWdCtlMNfjUrrcQOM9ycOujBB8ObIEiFu5IWOF5JtaFL4j7We7DrFGa9HKeibjfoCETuO5tFzme_m5vxj-D3dA6EtfFYRlcVVHhkT65vaerVU_zTunn0vSWjN3KKLXI3g6gGurDEbTeRTKosyh5b-AvOiEeijNea82osvDDgtPBxAJmlmniV8Y-5uAyt_Jg05QAuYMLQGBOwNwJ2sAfXy65XgVXpHjScZIC7OkyXJ8dr0PqIEXYmhWwUwnDhFnVurF65m00]--></g></svg>