<?xml version="1.0" encoding="UTF-8" standalone="no"?><svg xmlns="http://www.w3.org/2000/svg" xmlns:xlink="http://www.w3.org/1999/xlink" contentStyleType="text/css" height="1845px" preserveAspectRatio="none" style="width:653px;height:1845px;background:#FFFFFF;" version="1.1" viewBox="0 0 653 1845" width="653px" zoomAndPan="magnify"><defs/><g><ellipse cx="314.75" cy="20" fill="#222222" rx="10" ry="10" style="stroke:#222222;stroke-width:1.0;"/><rect fill="#F1F1F1" height="33.9688" rx="12.5" ry="12.5" style="stroke:#181818;stroke-width:0.5;" width="210" x="209.75" y="50"/><text fill="#000000" font-family="sans-serif" font-size="12" lengthAdjust="spacing" textLength="190" x="219.75" y="71.1387">User accesses the application</text><polygon fill="#F1F1F1" points="263.75,103.9688,365.75,103.9688,377.75,115.9688,365.75,127.9688,263.75,127.9688,251.75,115.9688,263.75,103.9688" style="stroke:#181818;stroke-width:0.5;"/><text fill="#000000" font-family="sans-serif" font-size="11" lengthAdjust="spacing" textLength="102" x="263.75" y="119.7769">Is user logged in?</text><text fill="#000000" font-family="sans-serif" font-size="11" lengthAdjust="spacing" textLength="21" x="230.75" y="113.3745">Yes</text><text fill="#000000" font-family="sans-serif" font-size="11" lengthAdjust="spacing" textLength="15" x="377.75" y="113.3745">No</text><rect fill="#F1F1F1" height="33.9688" rx="12.5" ry="12.5" style="stroke:#181818;stroke-width:0.5;" width="147" x="151.25" y="137.9688"/><text fill="#000000" font-family="sans-serif" font-size="12" lengthAdjust="spacing" textLength="127" x="161.25" y="159.1074">Redirect to Task List</text><rect fill="#F1F1F1" height="33.9688" rx="12.5" ry="12.5" style="stroke:#181818;stroke-width:0.5;" width="173" x="318.25" y="137.9688"/><text fill="#000000" font-family="sans-serif" font-size="12" lengthAdjust="spacing" textLength="153" x="328.25" y="159.1074">Show Login/Signup Page</text><polygon fill="#F1F1F1" points="314.75,177.9375,326.75,189.9375,314.75,201.9375,302.75,189.9375,314.75,177.9375" style="stroke:#181818;stroke-width:0.5;"/><rect fill="#F1F1F1" height="33.9688" rx="12.5" ry="12.5" style="stroke:#181818;stroke-width:0.5;" width="228" x="200.75" y="270.3398"/><text fill="#000000" font-family="sans-serif" font-size="12" lengthAdjust="spacing" textLength="208" x="210.75" y="291.4785">Authenticate user from MongoDB</text><polygon fill="#F1F1F1" points="263.75,324.3086,365.75,324.3086,377.75,336.3086,365.75,348.3086,263.75,348.3086,251.75,336.3086,263.75,324.3086" style="stroke:#181818;stroke-width:0.5;"/><text fill="#000000" font-family="sans-serif" font-size="11" lengthAdjust="spacing" textLength="102" x="263.75" y="340.1167">Valid Credentials?</text><text fill="#000000" font-family="sans-serif" font-size="11" lengthAdjust="spacing" textLength="21" x="230.75" y="333.7144">Yes</text><text fill="#000000" font-family="sans-serif" font-size="11" lengthAdjust="spacing" textLength="15" x="377.75" y="333.7144">No</text><rect fill="#F1F1F1" height="33.9688" rx="12.5" ry="12.5" style="stroke:#181818;stroke-width:0.5;" width="259" x="37.75" y="358.3086"/><text fill="#000000" font-family="sans-serif" font-size="12" lengthAdjust="spacing" textLength="239" x="47.75" y="379.4473">Start session and redirect to Task List</text><rect fill="#F1F1F1" height="33.9688" rx="12.5" ry="12.5" style="stroke:#181818;stroke-width:0.5;" width="291" x="316.75" y="358.3086"/><text fill="#000000" font-family="sans-serif" font-size="12" lengthAdjust="spacing" textLength="271" x="326.75" y="379.4473">Show error message and reload login page</text><polygon fill="#F1F1F1" points="314.75,398.2773,326.75,410.2773,314.75,422.2773,302.75,410.2773,314.75,398.2773" style="stroke:#181818;stroke-width:0.5;"/><polygon fill="#F1F1F1" points="242.25,221.9375,387.25,221.9375,399.25,233.9375,387.25,245.9375,242.25,245.9375,230.25,233.9375,242.25,221.9375" style="stroke:#181818;stroke-width:0.5;"/><text fill="#000000" font-family="sans-serif" font-size="11" lengthAdjust="spacing" textLength="21" x="318.75" y="256.1479">Yes</text><text fill="#000000" font-family="sans-serif" font-size="11" lengthAdjust="spacing" textLength="145" x="242.25" y="237.7456">User submits login form?</text><polygon fill="#F1F1F1" points="314.75,442.2773,326.75,454.2773,314.75,466.2773,302.75,454.2773,314.75,442.2773" style="stroke:#181818;stroke-width:0.5;"/><rect fill="#F1F1F1" height="33.9688" rx="12.5" ry="12.5" style="stroke:#181818;stroke-width:0.5;" width="254" x="187.75" y="534.6797"/><text fill="#000000" font-family="sans-serif" font-size="12" lengthAdjust="spacing" textLength="234" x="197.75" y="555.8184">Check if username exists in MongoDB</text><polygon fill="#F1F1F1" points="263.25,588.6484,366.25,588.6484,378.25,600.6484,366.25,612.6484,263.25,612.6484,251.25,600.6484,263.25,588.6484" style="stroke:#181818;stroke-width:0.5;"/><text fill="#000000" font-family="sans-serif" font-size="11" lengthAdjust="spacing" textLength="103" x="263.25" y="604.4565">Username exists?</text><text fill="#000000" font-family="sans-serif" font-size="11" lengthAdjust="spacing" textLength="21" x="230.25" y="598.0542">Yes</text><text fill="#000000" font-family="sans-serif" font-size="11" lengthAdjust="spacing" textLength="15" x="378.25" y="598.0542">No</text><rect fill="#F1F1F1" height="33.9688" rx="12.5" ry="12.5" style="stroke:#181818;stroke-width:0.5;" width="303" x="11" y="622.6484"/><text fill="#000000" font-family="sans-serif" font-size="12" lengthAdjust="spacing" textLength="283" x="21" y="643.7871">Show error message and reload signup page</text><rect fill="#F1F1F1" height="33.9688" rx="12.5" ry="12.5" style="stroke:#181818;stroke-width:0.5;" width="266" x="334" y="622.6484"/><text fill="#000000" font-family="sans-serif" font-size="12" lengthAdjust="spacing" textLength="246" x="344" y="643.7871">Create new user and store in MongoDB</text><rect fill="#F1F1F1" height="33.9688" rx="12.5" ry="12.5" style="stroke:#181818;stroke-width:0.5;" width="162" x="386" y="676.6172"/><text fill="#000000" font-family="sans-serif" font-size="12" lengthAdjust="spacing" textLength="142" x="396" y="697.7559">Redirect to Login Page</text><polygon fill="#F1F1F1" points="314.75,716.5859,326.75,728.5859,314.75,740.5859,302.75,728.5859,314.75,716.5859" style="stroke:#181818;stroke-width:0.5;"/><polygon fill="#F1F1F1" points="236.75,486.2773,392.75,486.2773,404.75,498.2773,392.75,510.2773,236.75,510.2773,224.75,498.2773,236.75,486.2773" style="stroke:#181818;stroke-width:0.5;"/><text fill="#000000" font-family="sans-serif" font-size="11" lengthAdjust="spacing" textLength="21" x="318.75" y="520.4878">Yes</text><text fill="#000000" font-family="sans-serif" font-size="11" lengthAdjust="spacing" textLength="156" x="236.75" y="502.0854">User submits signup form?</text><polygon fill="#F1F1F1" points="314.75,760.5859,326.75,772.5859,314.75,784.5859,302.75,772.5859,314.75,760.5859" style="stroke:#181818;stroke-width:0.5;"/><rect fill="#F1F1F1" height="33.9688" rx="12.5" ry="12.5" style="stroke:#181818;stroke-width:0.5;" width="188" x="220.75" y="852.9883"/><text fill="#000000" font-family="sans-serif" font-size="12" lengthAdjust="spacing" textLength="168" x="230.75" y="874.127">Fetch tasks from MongoDB</text><rect fill="#F1F1F1" height="33.9688" rx="12.5" ry="12.5" style="stroke:#181818;stroke-width:0.5;" width="138" x="245.75" y="921.957"/><text fill="#000000" font-family="sans-serif" font-size="12" lengthAdjust="spacing" textLength="118" x="255.75" y="943.0957">Display tasks on UI</text><polygon fill="#F1F1F1" points="233.75,804.5859,395.75,804.5859,407.75,816.5859,395.75,828.5859,233.75,828.5859,221.75,816.5859,233.75,804.5859" style="stroke:#181818;stroke-width:0.5;"/><text fill="#000000" font-family="sans-serif" font-size="11" lengthAdjust="spacing" textLength="21" x="318.75" y="838.7964">Yes</text><text fill="#000000" font-family="sans-serif" font-size="11" lengthAdjust="spacing" textLength="162" x="233.75" y="820.394">User navigates to Task List?</text><polygon fill="#F1F1F1" points="314.75,975.9258,326.75,987.9258,314.75,999.9258,302.75,987.9258,314.75,975.9258" style="stroke:#181818;stroke-width:0.5;"/><rect fill="#F1F1F1" height="33.9688" rx="12.5" ry="12.5" style="stroke:#181818;stroke-width:0.5;" width="159" x="235.25" y="1068.3281"/><text fill="#000000" font-family="sans-serif" font-size="12" lengthAdjust="spacing" textLength="139" x="245.25" y="1089.4668">Save task in MongoDB</text><rect fill="#F1F1F1" height="33.9688" rx="12.5" ry="12.5" style="stroke:#181818;stroke-width:0.5;" width="121" x="254.25" y="1137.2969"/><text fill="#000000" font-family="sans-serif" font-size="12" lengthAdjust="spacing" textLength="101" x="264.25" y="1158.4355">Refresh task list</text><polygon fill="#F1F1F1" points="249.25,1019.9258,380.25,1019.9258,392.25,1031.9258,380.25,1043.9258,249.25,1043.9258,237.25,1031.9258,249.25,1019.9258" style="stroke:#181818;stroke-width:0.5;"/><text fill="#000000" font-family="sans-serif" font-size="11" lengthAdjust="spacing" textLength="21" x="318.75" y="1054.1362">Yes</text><text fill="#000000" font-family="sans-serif" font-size="11" lengthAdjust="spacing" textLength="131" x="249.25" y="1035.7339">User adds a new task?</text><polygon fill="#F1F1F1" points="314.75,1191.2656,326.75,1203.2656,314.75,1215.2656,302.75,1203.2656,314.75,1191.2656" style="stroke:#181818;stroke-width:0.5;"/><rect fill="#F1F1F1" height="33.9688" rx="12.5" ry="12.5" style="stroke:#181818;stroke-width:0.5;" width="219" x="205.25" y="1283.668"/><text fill="#000000" font-family="sans-serif" font-size="12" lengthAdjust="spacing" textLength="199" x="215.25" y="1304.8066">Update task status in MongoDB</text><rect fill="#F1F1F1" height="33.9688" rx="12.5" ry="12.5" style="stroke:#181818;stroke-width:0.5;" width="121" x="254.25" y="1352.6367"/><text fill="#000000" font-family="sans-serif" font-size="12" lengthAdjust="spacing" textLength="101" x="264.25" y="1373.7754">Refresh task list</text><polygon fill="#F1F1F1" points="223.75,1235.2656,405.75,1235.2656,417.75,1247.2656,405.75,1259.2656,223.75,1259.2656,211.75,1247.2656,223.75,1235.2656" style="stroke:#181818;stroke-width:0.5;"/><text fill="#000000" font-family="sans-serif" font-size="11" lengthAdjust="spacing" textLength="21" x="318.75" y="1269.4761">Yes</text><text fill="#000000" font-family="sans-serif" font-size="11" lengthAdjust="spacing" textLength="182" x="223.75" y="1251.0737">User marks task as completed?</text><polygon fill="#F1F1F1" points="314.75,1406.6055,326.75,1418.6055,314.75,1430.6055,302.75,1418.6055,314.75,1406.6055" style="stroke:#181818;stroke-width:0.5;"/><rect fill="#F1F1F1" height="33.9688" rx="12.5" ry="12.5" style="stroke:#181818;stroke-width:0.5;" width="195" x="217.25" y="1499.0078"/><text fill="#000000" font-family="sans-serif" font-size="12" lengthAdjust="spacing" textLength="175" x="227.25" y="1520.1465">Remove task from MongoDB</text><rect fill="#F1F1F1" height="33.9688" rx="12.5" ry="12.5" style="stroke:#181818;stroke-width:0.5;" width="121" x="254.25" y="1567.9766"/><text fill="#000000" font-family="sans-serif" font-size="12" lengthAdjust="spacing" textLength="101" x="264.25" y="1589.1152">Refresh task list</text><polygon fill="#F1F1F1" points="255.75,1450.6055,373.75,1450.6055,385.75,1462.6055,373.75,1474.6055,255.75,1474.6055,243.75,1462.6055,255.75,1450.6055" style="stroke:#181818;stroke-width:0.5;"/><text fill="#000000" font-family="sans-serif" font-size="11" lengthAdjust="spacing" textLength="21" x="318.75" y="1484.8159">Yes</text><text fill="#000000" font-family="sans-serif" font-size="11" lengthAdjust="spacing" textLength="118" x="255.75" y="1466.4136">User deletes a task?</text><polygon fill="#F1F1F1" points="314.75,1621.9453,326.75,1633.9453,314.75,1645.9453,302.75,1633.9453,314.75,1621.9453" style="stroke:#181818;stroke-width:0.5;"/><rect fill="#F1F1F1" height="33.9688" rx="12.5" ry="12.5" style="stroke:#181818;stroke-width:0.5;" width="275" x="177.25" y="1714.3477"/><text fill="#000000" font-family="sans-serif" font-size="12" lengthAdjust="spacing" textLength="255" x="187.25" y="1735.4863">Clear session and redirect to Login Page</text><polygon fill="#F1F1F1" points="273.25,1665.9453,356.25,1665.9453,368.25,1677.9453,356.25,1689.9453,273.25,1689.9453,261.25,1677.9453,273.25,1665.9453" style="stroke:#181818;stroke-width:0.5;"/><text fill="#000000" font-family="sans-serif" font-size="11" lengthAdjust="spacing" textLength="21" x="318.75" y="1700.1558">Yes</text><text fill="#000000" font-family="sans-serif" font-size="11" lengthAdjust="spacing" textLength="83" x="273.25" y="1681.7534">User logs out?</text><polygon fill="#F1F1F1" points="314.75,1768.3164,326.75,1780.3164,314.75,1792.3164,302.75,1780.3164,314.75,1768.3164" style="stroke:#181818;stroke-width:0.5;"/><ellipse cx="314.75" cy="1823.3164" fill="none" rx="11" ry="11" style="stroke:#222222;stroke-width:1.0;"/><ellipse cx="314.75" cy="1823.3164" fill="#222222" rx="6" ry="6" style="stroke:#111111;stroke-width:1.0;"/><line style="stroke:#181818;stroke-width:1.0;" x1="314.75" x2="314.75" y1="30" y2="50"/><polygon fill="#181818" points="310.75,40,314.75,50,318.75,40,314.75,44" style="stroke:#181818;stroke-width:1.0;"/><line style="stroke:#181818;stroke-width:1.0;" x1="251.75" x2="224.75" y1="115.9688" y2="115.9688"/><line style="stroke:#181818;stroke-width:1.0;" x1="224.75" x2="224.75" y1="115.9688" y2="137.9688"/><polygon fill="#181818" points="220.75,127.9688,224.75,137.9688,228.75,127.9688,224.75,131.9688" style="stroke:#181818;stroke-width:1.0;"/><line style="stroke:#181818;stroke-width:1.0;" x1="377.75" x2="404.75" y1="115.9688" y2="115.9688"/><line style="stroke:#181818;stroke-width:1.0;" x1="404.75" x2="404.75" y1="115.9688" y2="137.9688"/><polygon fill="#181818" points="400.75,127.9688,404.75,137.9688,408.75,127.9688,404.75,131.9688" style="stroke:#181818;stroke-width:1.0;"/><line style="stroke:#181818;stroke-width:1.0;" x1="224.75" x2="224.75" y1="171.9375" y2="189.9375"/><line style="stroke:#181818;stroke-width:1.0;" x1="224.75" x2="302.75" y1="189.9375" y2="189.9375"/><polygon fill="#181818" points="292.75,185.9375,302.75,189.9375,292.75,193.9375,296.75,189.9375" style="stroke:#181818;stroke-width:1.0;"/><line style="stroke:#181818;stroke-width:1.0;" x1="404.75" x2="404.75" y1="171.9375" y2="189.9375"/><line style="stroke:#181818;stroke-width:1.0;" x1="404.75" x2="326.75" y1="189.9375" y2="189.9375"/><polygon fill="#181818" points="336.75,185.9375,326.75,189.9375,336.75,193.9375,332.75,189.9375" style="stroke:#181818;stroke-width:1.0;"/><line style="stroke:#181818;stroke-width:1.0;" x1="314.75" x2="314.75" y1="83.9688" y2="103.9688"/><polygon fill="#181818" points="310.75,93.9688,314.75,103.9688,318.75,93.9688,314.75,97.9688" style="stroke:#181818;stroke-width:1.0;"/><line style="stroke:#181818;stroke-width:1.0;" x1="251.75" x2="167.25" y1="336.3086" y2="336.3086"/><line style="stroke:#181818;stroke-width:1.0;" x1="167.25" x2="167.25" y1="336.3086" y2="358.3086"/><polygon fill="#181818" points="163.25,348.3086,167.25,358.3086,171.25,348.3086,167.25,352.3086" style="stroke:#181818;stroke-width:1.0;"/><line style="stroke:#181818;stroke-width:1.0;" x1="377.75" x2="462.25" y1="336.3086" y2="336.3086"/><line style="stroke:#181818;stroke-width:1.0;" x1="462.25" x2="462.25" y1="336.3086" y2="358.3086"/><polygon fill="#181818" points="458.25,348.3086,462.25,358.3086,466.25,348.3086,462.25,352.3086" style="stroke:#181818;stroke-width:1.0;"/><line style="stroke:#181818;stroke-width:1.0;" x1="167.25" x2="167.25" y1="392.2773" y2="410.2773"/><line style="stroke:#181818;stroke-width:1.0;" x1="167.25" x2="302.75" y1="410.2773" y2="410.2773"/><polygon fill="#181818" points="292.75,406.2773,302.75,410.2773,292.75,414.2773,296.75,410.2773" style="stroke:#181818;stroke-width:1.0;"/><line style="stroke:#181818;stroke-width:1.0;" x1="462.25" x2="462.25" y1="392.2773" y2="410.2773"/><line style="stroke:#181818;stroke-width:1.0;" x1="462.25" x2="326.75" y1="410.2773" y2="410.2773"/><polygon fill="#181818" points="336.75,406.2773,326.75,410.2773,336.75,414.2773,332.75,410.2773" style="stroke:#181818;stroke-width:1.0;"/><line style="stroke:#181818;stroke-width:1.0;" x1="314.75" x2="314.75" y1="304.3086" y2="324.3086"/><polygon fill="#181818" points="310.75,314.3086,314.75,324.3086,318.75,314.3086,314.75,318.3086" style="stroke:#181818;stroke-width:1.0;"/><line style="stroke:#181818;stroke-width:1.0;" x1="314.75" x2="314.75" y1="245.9375" y2="270.3398"/><polygon fill="#181818" points="310.75,260.3398,314.75,270.3398,318.75,260.3398,314.75,264.3398" style="stroke:#181818;stroke-width:1.0;"/><line style="stroke:#181818;stroke-width:1.0;" x1="399.25" x2="627.75" y1="233.9375" y2="233.9375"/><polygon fill="#181818" points="623.75,328.8086,627.75,338.8086,631.75,328.8086,627.75,332.8086" style="stroke:#181818;stroke-width:1.0;"/><line style="stroke:#181818;stroke-width:1.0;" x1="627.75" x2="627.75" y1="233.9375" y2="454.2773"/><line style="stroke:#181818;stroke-width:1.0;" x1="627.75" x2="326.75" y1="454.2773" y2="454.2773"/><polygon fill="#181818" points="336.75,450.2773,326.75,454.2773,336.75,458.2773,332.75,454.2773" style="stroke:#181818;stroke-width:1.0;"/><line style="stroke:#181818;stroke-width:1.0;" x1="314.75" x2="314.75" y1="422.2773" y2="442.2773"/><polygon fill="#181818" points="310.75,432.2773,314.75,442.2773,318.75,432.2773,314.75,436.2773" style="stroke:#181818;stroke-width:1.0;"/><line style="stroke:#181818;stroke-width:1.0;" x1="314.75" x2="314.75" y1="201.9375" y2="221.9375"/><polygon fill="#181818" points="310.75,211.9375,314.75,221.9375,318.75,211.9375,314.75,215.9375" style="stroke:#181818;stroke-width:1.0;"/><line style="stroke:#181818;stroke-width:1.0;" x1="467" x2="467" y1="656.6172" y2="676.6172"/><polygon fill="#181818" points="463,666.6172,467,676.6172,471,666.6172,467,670.6172" style="stroke:#181818;stroke-width:1.0;"/><line style="stroke:#181818;stroke-width:1.0;" x1="251.25" x2="162.5" y1="600.6484" y2="600.6484"/><line style="stroke:#181818;stroke-width:1.0;" x1="162.5" x2="162.5" y1="600.6484" y2="622.6484"/><polygon fill="#181818" points="158.5,612.6484,162.5,622.6484,166.5,612.6484,162.5,616.6484" style="stroke:#181818;stroke-width:1.0;"/><line style="stroke:#181818;stroke-width:1.0;" x1="378.25" x2="467" y1="600.6484" y2="600.6484"/><line style="stroke:#181818;stroke-width:1.0;" x1="467" x2="467" y1="600.6484" y2="622.6484"/><polygon fill="#181818" points="463,612.6484,467,622.6484,471,612.6484,467,616.6484" style="stroke:#181818;stroke-width:1.0;"/><line style="stroke:#181818;stroke-width:1.0;" x1="162.5" x2="162.5" y1="656.6172" y2="728.5859"/><line style="stroke:#181818;stroke-width:1.0;" x1="162.5" x2="302.75" y1="728.5859" y2="728.5859"/><polygon fill="#181818" points="292.75,724.5859,302.75,728.5859,292.75,732.5859,296.75,728.5859" style="stroke:#181818;stroke-width:1.0;"/><line style="stroke:#181818;stroke-width:1.0;" x1="467" x2="467" y1="710.5859" y2="728.5859"/><line style="stroke:#181818;stroke-width:1.0;" x1="467" x2="326.75" y1="728.5859" y2="728.5859"/><polygon fill="#181818" points="336.75,724.5859,326.75,728.5859,336.75,732.5859,332.75,728.5859" style="stroke:#181818;stroke-width:1.0;"/><line style="stroke:#181818;stroke-width:1.0;" x1="314.75" x2="314.75" y1="568.6484" y2="588.6484"/><polygon fill="#181818" points="310.75,578.6484,314.75,588.6484,318.75,578.6484,314.75,582.6484" style="stroke:#181818;stroke-width:1.0;"/><line style="stroke:#181818;stroke-width:1.0;" x1="314.75" x2="314.75" y1="510.2773" y2="534.6797"/><polygon fill="#181818" points="310.75,524.6797,314.75,534.6797,318.75,524.6797,314.75,528.6797" style="stroke:#181818;stroke-width:1.0;"/><line style="stroke:#181818;stroke-width:1.0;" x1="404.75" x2="620" y1="498.2773" y2="498.2773"/><polygon fill="#181818" points="616,627.6328,620,637.6328,624,627.6328,620,631.6328" style="stroke:#181818;stroke-width:1.0;"/><line style="stroke:#181818;stroke-width:1.0;" x1="620" x2="620" y1="498.2773" y2="772.5859"/><line style="stroke:#181818;stroke-width:1.0;" x1="620" x2="326.75" y1="772.5859" y2="772.5859"/><polygon fill="#181818" points="336.75,768.5859,326.75,772.5859,336.75,776.5859,332.75,772.5859" style="stroke:#181818;stroke-width:1.0;"/><line style="stroke:#181818;stroke-width:1.0;" x1="314.75" x2="314.75" y1="740.5859" y2="760.5859"/><polygon fill="#181818" points="310.75,750.5859,314.75,760.5859,318.75,750.5859,314.75,754.5859" style="stroke:#181818;stroke-width:1.0;"/><line style="stroke:#181818;stroke-width:1.0;" x1="314.75" x2="314.75" y1="466.2773" y2="486.2773"/><polygon fill="#181818" points="310.75,476.2773,314.75,486.2773,318.75,476.2773,314.75,480.2773" style="stroke:#181818;stroke-width:1.0;"/><line style="stroke:#181818;stroke-width:1.0;" x1="314.75" x2="314.75" y1="886.957" y2="921.957"/><polygon fill="#181818" points="310.75,911.957,314.75,921.957,318.75,911.957,314.75,915.957" style="stroke:#181818;stroke-width:1.0;"/><line style="stroke:#181818;stroke-width:1.0;" x1="314.75" x2="314.75" y1="828.5859" y2="852.9883"/><polygon fill="#181818" points="310.75,842.9883,314.75,852.9883,318.75,842.9883,314.75,846.9883" style="stroke:#181818;stroke-width:1.0;"/><line style="stroke:#181818;stroke-width:1.0;" x1="407.75" x2="419.75" y1="816.5859" y2="816.5859"/><polygon fill="#181818" points="415.75,894.457,419.75,904.457,423.75,894.457,419.75,898.457" style="stroke:#181818;stroke-width:1.0;"/><line style="stroke:#181818;stroke-width:1.0;" x1="419.75" x2="419.75" y1="816.5859" y2="987.9258"/><line style="stroke:#181818;stroke-width:1.0;" x1="419.75" x2="326.75" y1="987.9258" y2="987.9258"/><polygon fill="#181818" points="336.75,983.9258,326.75,987.9258,336.75,991.9258,332.75,987.9258" style="stroke:#181818;stroke-width:1.0;"/><line style="stroke:#181818;stroke-width:1.0;" x1="314.75" x2="314.75" y1="955.9258" y2="975.9258"/><polygon fill="#181818" points="310.75,965.9258,314.75,975.9258,318.75,965.9258,314.75,969.9258" style="stroke:#181818;stroke-width:1.0;"/><line style="stroke:#181818;stroke-width:1.0;" x1="314.75" x2="314.75" y1="784.5859" y2="804.5859"/><polygon fill="#181818" points="310.75,794.5859,314.75,804.5859,318.75,794.5859,314.75,798.5859" style="stroke:#181818;stroke-width:1.0;"/><line style="stroke:#181818;stroke-width:1.0;" x1="314.75" x2="314.75" y1="1102.2969" y2="1137.2969"/><polygon fill="#181818" points="310.75,1127.2969,314.75,1137.2969,318.75,1127.2969,314.75,1131.2969" style="stroke:#181818;stroke-width:1.0;"/><line style="stroke:#181818;stroke-width:1.0;" x1="314.75" x2="314.75" y1="1043.9258" y2="1068.3281"/><polygon fill="#181818" points="310.75,1058.3281,314.75,1068.3281,318.75,1058.3281,314.75,1062.3281" style="stroke:#181818;stroke-width:1.0;"/><line style="stroke:#181818;stroke-width:1.0;" x1="392.25" x2="404.25" y1="1031.9258" y2="1031.9258"/><polygon fill="#181818" points="400.25,1109.7969,404.25,1119.7969,408.25,1109.7969,404.25,1113.7969" style="stroke:#181818;stroke-width:1.0;"/><line style="stroke:#181818;stroke-width:1.0;" x1="404.25" x2="404.25" y1="1031.9258" y2="1203.2656"/><line style="stroke:#181818;stroke-width:1.0;" x1="404.25" x2="326.75" y1="1203.2656" y2="1203.2656"/><polygon fill="#181818" points="336.75,1199.2656,326.75,1203.2656,336.75,1207.2656,332.75,1203.2656" style="stroke:#181818;stroke-width:1.0;"/><line style="stroke:#181818;stroke-width:1.0;" x1="314.75" x2="314.75" y1="1171.2656" y2="1191.2656"/><polygon fill="#181818" points="310.75,1181.2656,314.75,1191.2656,318.75,1181.2656,314.75,1185.2656" style="stroke:#181818;stroke-width:1.0;"/><line style="stroke:#181818;stroke-width:1.0;" x1="314.75" x2="314.75" y1="999.9258" y2="1019.9258"/><polygon fill="#181818" points="310.75,1009.9258,314.75,1019.9258,318.75,1009.9258,314.75,1013.9258" style="stroke:#181818;stroke-width:1.0;"/><line style="stroke:#181818;stroke-width:1.0;" x1="314.75" x2="314.75" y1="1317.6367" y2="1352.6367"/><polygon fill="#181818" points="310.75,1342.6367,314.75,1352.6367,318.75,1342.6367,314.75,1346.6367" style="stroke:#181818;stroke-width:1.0;"/><line style="stroke:#181818;stroke-width:1.0;" x1="314.75" x2="314.75" y1="1259.2656" y2="1283.668"/><polygon fill="#181818" points="310.75,1273.668,314.75,1283.668,318.75,1273.668,314.75,1277.668" style="stroke:#181818;stroke-width:1.0;"/><line style="stroke:#181818;stroke-width:1.0;" x1="417.75" x2="434.25" y1="1247.2656" y2="1247.2656"/><polygon fill="#181818" points="430.25,1325.1367,434.25,1335.1367,438.25,1325.1367,434.25,1329.1367" style="stroke:#181818;stroke-width:1.0;"/><line style="stroke:#181818;stroke-width:1.0;" x1="434.25" x2="434.25" y1="1247.2656" y2="1418.6055"/><line style="stroke:#181818;stroke-width:1.0;" x1="434.25" x2="326.75" y1="1418.6055" y2="1418.6055"/><polygon fill="#181818" points="336.75,1414.6055,326.75,1418.6055,336.75,1422.6055,332.75,1418.6055" style="stroke:#181818;stroke-width:1.0;"/><line style="stroke:#181818;stroke-width:1.0;" x1="314.75" x2="314.75" y1="1386.6055" y2="1406.6055"/><polygon fill="#181818" points="310.75,1396.6055,314.75,1406.6055,318.75,1396.6055,314.75,1400.6055" style="stroke:#181818;stroke-width:1.0;"/><line style="stroke:#181818;stroke-width:1.0;" x1="314.75" x2="314.75" y1="1215.2656" y2="1235.2656"/><polygon fill="#181818" points="310.75,1225.2656,314.75,1235.2656,318.75,1225.2656,314.75,1229.2656" style="stroke:#181818;stroke-width:1.0;"/><line style="stroke:#181818;stroke-width:1.0;" x1="314.75" x2="314.75" y1="1532.9766" y2="1567.9766"/><polygon fill="#181818" points="310.75,1557.9766,314.75,1567.9766,318.75,1557.9766,314.75,1561.9766" style="stroke:#181818;stroke-width:1.0;"/><line style="stroke:#181818;stroke-width:1.0;" x1="314.75" x2="314.75" y1="1474.6055" y2="1499.0078"/><polygon fill="#181818" points="310.75,1489.0078,314.75,1499.0078,318.75,1489.0078,314.75,1493.0078" style="stroke:#181818;stroke-width:1.0;"/><line style="stroke:#181818;stroke-width:1.0;" x1="385.75" x2="422.25" y1="1462.6055" y2="1462.6055"/><polygon fill="#181818" points="418.25,1540.4766,422.25,1550.4766,426.25,1540.4766,422.25,1544.4766" style="stroke:#181818;stroke-width:1.0;"/><line style="stroke:#181818;stroke-width:1.0;" x1="422.25" x2="422.25" y1="1462.6055" y2="1633.9453"/><line style="stroke:#181818;stroke-width:1.0;" x1="422.25" x2="326.75" y1="1633.9453" y2="1633.9453"/><polygon fill="#181818" points="336.75,1629.9453,326.75,1633.9453,336.75,1637.9453,332.75,1633.9453" style="stroke:#181818;stroke-width:1.0;"/><line style="stroke:#181818;stroke-width:1.0;" x1="314.75" x2="314.75" y1="1601.9453" y2="1621.9453"/><polygon fill="#181818" points="310.75,1611.9453,314.75,1621.9453,318.75,1611.9453,314.75,1615.9453" style="stroke:#181818;stroke-width:1.0;"/><line style="stroke:#181818;stroke-width:1.0;" x1="314.75" x2="314.75" y1="1430.6055" y2="1450.6055"/><polygon fill="#181818" points="310.75,1440.6055,314.75,1450.6055,318.75,1440.6055,314.75,1444.6055" style="stroke:#181818;stroke-width:1.0;"/><line style="stroke:#181818;stroke-width:1.0;" x1="314.75" x2="314.75" y1="1689.9453" y2="1714.3477"/><polygon fill="#181818" points="310.75,1704.3477,314.75,1714.3477,318.75,1704.3477,314.75,1708.3477" style="stroke:#181818;stroke-width:1.0;"/><line style="stroke:#181818;stroke-width:1.0;" x1="368.25" x2="462.25" y1="1677.9453" y2="1677.9453"/><polygon fill="#181818" points="458.25,1721.332,462.25,1731.332,466.25,1721.332,462.25,1725.332" style="stroke:#181818;stroke-width:1.0;"/><line style="stroke:#181818;stroke-width:1.0;" x1="462.25" x2="462.25" y1="1677.9453" y2="1780.3164"/><line style="stroke:#181818;stroke-width:1.0;" x1="462.25" x2="326.75" y1="1780.3164" y2="1780.3164"/><polygon fill="#181818" points="336.75,1776.3164,326.75,1780.3164,336.75,1784.3164,332.75,1780.3164" style="stroke:#181818;stroke-width:1.0;"/><line style="stroke:#181818;stroke-width:1.0;" x1="314.75" x2="314.75" y1="1748.3164" y2="1768.3164"/><polygon fill="#181818" points="310.75,1758.3164,314.75,1768.3164,318.75,1758.3164,314.75,1762.3164" style="stroke:#181818;stroke-width:1.0;"/><line style="stroke:#181818;stroke-width:1.0;" x1="314.75" x2="314.75" y1="1645.9453" y2="1665.9453"/><polygon fill="#181818" points="310.75,1655.9453,314.75,1665.9453,318.75,1655.9453,314.75,1659.9453" style="stroke:#181818;stroke-width:1.0;"/><line style="stroke:#181818;stroke-width:1.0;" x1="314.75" x2="314.75" y1="1792.3164" y2="1812.3164"/><polygon fill="#181818" points="310.75,1802.3164,314.75,1812.3164,318.75,1802.3164,314.75,1806.3164" style="stroke:#181818;stroke-width:1.0;"/><!--MD5=[513ae732a917041a7669b846e5a89f36]
@startuml
start

:User accesses the application;
if (Is user logged in?) then (Yes)
    :Redirect to Task List;
else (No)
    :Show Login/Signup Page;
endif

if (User submits login form?) then (Yes)
    :Authenticate user from MongoDB;
    if (Valid Credentials?) then (Yes)
        :Start session and redirect to Task List;
    else (No)
        :Show error message and reload login page;
    endif
endif

if (User submits signup form?) then (Yes)
    :Check if username exists in MongoDB;
    if (Username exists?) then (Yes)
        :Show error message and reload signup page;
    else (No)
        :Create new user and store in MongoDB;
        :Redirect to Login Page;
    endif
endif

if (User navigates to Task List?) then (Yes)
    :Fetch tasks from MongoDB;
    :Display tasks on UI;
endif

if (User adds a new task?) then (Yes)
    :Save task in MongoDB;
    :Refresh task list;
endif

if (User marks task as completed?) then (Yes)
    :Update task status in MongoDB;
    :Refresh task list;
endif

if (User deletes a task?) then (Yes)
    :Remove task from MongoDB;
    :Refresh task list;
endif

if (User logs out?) then (Yes)
    :Clear session and redirect to Login Page;
endif

stop
@enduml

PlantUML version 1.2022.7(Mon Aug 22 17:01:30 UTC 2022)
(GPL source distribution)
Java Runtime: OpenJDK Runtime Environment
JVM: OpenJDK 64-Bit Server VM
Default Encoding: UTF-8
Language: en
Country: null
--></g></svg>