<svg xmlns="http://www.w3.org/2000/svg" xmlns:xlink="http://www.w3.org/1999/xlink" contentStyleType="text/css" data-diagram-type="SEQUENCE" height="524px" preserveAspectRatio="none" style="width:774px;height:524px;background:#FFFFFF;" version="1.1" viewBox="0 0 774 524" width="774px" zoomAndPan="magnify"><title>Update Task Sequence Diagram</title><defs/><g><text fill="#000000" font-family="sans-serif" font-size="14" font-weight="bold" lengthAdjust="spacing" textLength="251.959" x="262.1274" y="27.9951">Update Task Sequence Diagram</text><g><title>Flask App</title><rect fill="#FFFFFF" height="283.8672" style="stroke:#181818;stroke-width:1;" width="10" x="267.5864" y="149.7266"/></g><g><title>MongoDB</title><rect fill="#FFFFFF" height="29.1328" style="stroke:#181818;stroke-width:1;" width="10" x="528.6694" y="245.125"/></g><rect fill="none" height="219.7344" style="stroke:#000000;stroke-width:1.5;" width="757.2139" x="10" y="206.8594"/><g><title>User</title><rect fill="#000000" fill-opacity="0.00000" height="325" width="8" x="34.9551" y="118.5938"/><line style="stroke:#181818;stroke-width:0.5;stroke-dasharray:5.0,5.0;" x1="38" x2="38" y1="118.5938" y2="443.5938"/></g><g><title>Flask App</title><rect fill="#000000" fill-opacity="0.00000" height="325" width="8" x="268.5864" y="118.5938"/><line style="stroke:#181818;stroke-width:0.5;stroke-dasharray:5.0,5.0;" x1="271.7246" x2="271.7246" y1="118.5938" y2="443.5938"/></g><g><title>MongoDB</title><rect fill="#000000" fill-opacity="0.00000" height="325" width="8" x="529.6694" y="118.5938"/><line style="stroke:#181818;stroke-width:0.5;stroke-dasharray:5.0,5.0;" x1="532.9922" x2="532.9922" y1="118.5938" y2="443.5938"/></g><g><title>Prometheus</title><rect fill="#000000" fill-opacity="0.00000" height="325" width="8" x="645.8125" y="118.5938"/><line style="stroke:#181818;stroke-width:0.5;stroke-dasharray:5.0,5.0;" x1="649.7339" x2="649.7339" y1="118.5938" y2="443.5938"/></g><g class="participant participant-head" data-participant="User"><text fill="#000000" font-family="sans-serif" font-size="14" lengthAdjust="spacing" textLength="31.9102" x="20" y="115.292">User</text><ellipse cx="38.9551" cy="50.7969" fill="#E2E2F0" rx="8" ry="8" style="stroke:#181818;stroke-width:0.5;"/><path d="M38.9551,58.7969 L38.9551,85.7969 M25.9551,66.7969 L51.9551,66.7969 M38.9551,85.7969 L25.9551,100.7969 M38.9551,85.7969 L51.9551,100.7969" fill="none" style="stroke:#181818;stroke-width:0.5;"/></g><g class="participant participant-tail" data-participant="User"><text fill="#000000" font-family="sans-serif" font-size="14" lengthAdjust="spacing" textLength="31.9102" x="20" y="455.5889">User</text><ellipse cx="38.9551" cy="467.3906" fill="#E2E2F0" rx="8" ry="8" style="stroke:#181818;stroke-width:0.5;"/><path d="M38.9551,475.3906 L38.9551,502.3906 M25.9551,483.3906 L51.9551,483.3906 M38.9551,502.3906 L25.9551,517.3906 M38.9551,502.3906 L51.9551,517.3906" fill="none" style="stroke:#181818;stroke-width:0.5;"/></g><g class="participant participant-head" data-participant="Flask"><rect fill="#E2E2F0" height="30.2969" rx="2.5" ry="2.5" style="stroke:#181818;stroke-width:0.5;" width="81.7236" x="231.7246" y="87.2969"/><text fill="#000000" font-family="sans-serif" font-size="14" lengthAdjust="spacing" textLength="67.7236" x="238.7246" y="107.292">Flask App</text></g><g class="participant participant-tail" data-participant="Flask"><rect fill="#E2E2F0" height="30.2969" rx="2.5" ry="2.5" style="stroke:#181818;stroke-width:0.5;" width="81.7236" x="231.7246" y="442.5938"/><text fill="#000000" font-family="sans-serif" font-size="14" lengthAdjust="spacing" textLength="67.7236" x="238.7246" y="462.5889">Flask App</text></g><g class="participant participant-head" data-participant="Database"><rect fill="#E2E2F0" height="30.2969" rx="2.5" ry="2.5" style="stroke:#181818;stroke-width:0.5;" width="81.3545" x="492.9922" y="87.2969"/><text fill="#000000" font-family="sans-serif" font-size="14" lengthAdjust="spacing" textLength="67.3545" x="499.9922" y="107.292">MongoDB</text></g><g class="participant participant-tail" data-participant="Database"><rect fill="#E2E2F0" height="30.2969" rx="2.5" ry="2.5" style="stroke:#181818;stroke-width:0.5;" width="81.3545" x="492.9922" y="442.5938"/><text fill="#000000" font-family="sans-serif" font-size="14" lengthAdjust="spacing" textLength="67.3545" x="499.9922" y="462.5889">MongoDB</text></g><g class="participant participant-head" data-participant="Monitor"><rect fill="#E2E2F0" height="30.2969" rx="2.5" ry="2.5" style="stroke:#181818;stroke-width:0.5;" width="98.1572" x="600.7339" y="87.2969"/><text fill="#000000" font-family="sans-serif" font-size="14" lengthAdjust="spacing" textLength="84.1572" x="607.7339" y="107.292">Prometheus</text></g><g class="participant participant-tail" data-participant="Monitor"><rect fill="#E2E2F0" height="30.2969" rx="2.5" ry="2.5" style="stroke:#181818;stroke-width:0.5;" width="98.1572" x="600.7339" y="442.5938"/><text fill="#000000" font-family="sans-serif" font-size="14" lengthAdjust="spacing" textLength="84.1572" x="607.7339" y="462.5889">Prometheus</text></g><g><title>Flask App</title><rect fill="#FFFFFF" height="283.8672" style="stroke:#181818;stroke-width:1;" width="10" x="267.5864" y="149.7266"/></g><g><title>MongoDB</title><rect fill="#FFFFFF" height="29.1328" style="stroke:#181818;stroke-width:1;" width="10" x="528.6694" y="245.125"/></g><g class="message" data-participant-1="User" data-participant-2="Flask"><polygon fill="#181818" points="255.5864,145.7266,265.5864,149.7266,255.5864,153.7266,259.5864,149.7266" style="stroke:#181818;stroke-width:1;"/><line style="stroke:#181818;stroke-width:1;" x1="38.9551" x2="261.5864" y1="149.7266" y2="149.7266"/><text fill="#000000" font-family="sans-serif" font-size="13" lengthAdjust="spacing" textLength="209.6313" x="45.9551" y="144.6606">POST /updatetask (Task Details)</text></g><g class="message" data-participant-1="Flask" data-participant-2="Flask"><line style="stroke:#181818;stroke-width:1;" x1="277.5864" x2="319.5864" y1="178.8594" y2="178.8594"/><line style="stroke:#181818;stroke-width:1;" x1="319.5864" x2="319.5864" y1="178.8594" y2="191.8594"/><line style="stroke:#181818;stroke-width:1;" x1="278.5864" x2="319.5864" y1="191.8594" y2="191.8594"/><polygon fill="#181818" points="288.5864,187.8594,278.5864,191.8594,288.5864,195.8594,284.5864,191.8594" style="stroke:#181818;stroke-width:1;"/><text fill="#000000" font-family="sans-serif" font-size="13" lengthAdjust="spacing" textLength="140.8926" x="284.5864" y="173.7935">Validate User Session</text></g><path d="M10,206.8594 L74.4429,206.8594 L74.4429,213.9922 L64.4429,223.9922 L10,223.9922 L10,206.8594" fill="#EEEEEE" style="stroke:#000000;stroke-width:1.5;"/><rect fill="none" height="219.7344" style="stroke:#000000;stroke-width:1.5;" width="757.2139" x="10" y="206.8594"/><text fill="#000000" font-family="sans-serif" font-size="13" font-weight="bold" lengthAdjust="spacing" textLength="19.4429" x="25" y="219.9263">alt</text><text fill="#000000" font-family="sans-serif" font-size="11" font-weight="bold" lengthAdjust="spacing" textLength="103.6514" x="89.4429" y="219.0698">[User Logged In]</text><g class="message" data-participant-1="Flask" data-participant-2="Database"><polygon fill="#181818" points="516.6694,241.125,526.6694,245.125,516.6694,249.125,520.6694,245.125" style="stroke:#181818;stroke-width:1;"/><line style="stroke:#181818;stroke-width:1;" x1="277.5864" x2="522.6694" y1="245.125" y2="245.125"/><text fill="#000000" font-family="sans-serif" font-size="13" lengthAdjust="spacing" textLength="232.083" x="284.5864" y="240.0591">Update Task (by _id and username)</text></g><g class="message" data-participant-1="Database" data-participant-2="Flask"><polygon fill="#181818" points="288.5864,270.2578,278.5864,274.2578,288.5864,278.2578,284.5864,274.2578" style="stroke:#181818;stroke-width:1;"/><line style="stroke:#181818;stroke-width:1;stroke-dasharray:2.0,2.0;" x1="282.5864" x2="532.6694" y1="274.2578" y2="274.2578"/><text fill="#000000" font-family="sans-serif" font-size="13" lengthAdjust="spacing" textLength="89.6733" x="294.5864" y="269.1919">Task Updated</text></g><g class="message" data-participant-1="Flask" data-participant-2="Monitor"><polygon fill="#181818" points="637.8125,299.3906,647.8125,303.3906,637.8125,307.3906,641.8125,303.3906" style="stroke:#181818;stroke-width:1;"/><line style="stroke:#181818;stroke-width:1;" x1="277.5864" x2="643.8125" y1="303.3906" y2="303.3906"/><text fill="#000000" font-family="sans-serif" font-size="13" lengthAdjust="spacing" textLength="348.2261" x="284.5864" y="298.3247">Increment task_management_app_http_request_total</text></g><g class="message" data-participant-1="Monitor" data-participant-2="Monitor"><line style="stroke:#181818;stroke-width:1;stroke-dasharray:2.0,2.0;" x1="649.8125" x2="691.8125" y1="332.5234" y2="332.5234"/><line style="stroke:#181818;stroke-width:1;stroke-dasharray:2.0,2.0;" x1="691.8125" x2="691.8125" y1="332.5234" y2="345.5234"/><line style="stroke:#181818;stroke-width:1;stroke-dasharray:2.0,2.0;" x1="650.8125" x2="691.8125" y1="345.5234" y2="345.5234"/><polygon fill="#181818" points="660.8125,341.5234,650.8125,345.5234,660.8125,349.5234,656.8125,345.5234" style="stroke:#181818;stroke-width:1;"/><text fill="#000000" font-family="sans-serif" font-size="13" lengthAdjust="spacing" textLength="98.4014" x="656.8125" y="327.4575">Update Metrics</text></g><g class="message" data-participant-1="Flask" data-participant-2="User"><polygon fill="#181818" points="49.9551,370.6563,39.9551,374.6563,49.9551,378.6563,45.9551,374.6563" style="stroke:#181818;stroke-width:1;"/><line style="stroke:#181818;stroke-width:1;" x1="43.9551" x2="266.5864" y1="374.6563" y2="374.6563"/><text fill="#000000" font-family="sans-serif" font-size="13" lengthAdjust="spacing" textLength="80.1772" x="55.9551" y="369.5903">Redirect to /</text></g><line style="stroke:#000000;stroke-width:1;stroke-dasharray:2.0,2.0;" x1="10" x2="767.2139" y1="383.6563" y2="383.6563"/><text fill="#000000" font-family="sans-serif" font-size="11" font-weight="bold" lengthAdjust="spacing" textLength="129.5024" x="15" y="393.8667">[User Not Logged In]</text><g class="message" data-participant-1="Flask" data-participant-2="User"><polygon fill="#181818" points="49.9551,414.5938,39.9551,418.5938,49.9551,422.5938,45.9551,418.5938" style="stroke:#181818;stroke-width:1;"/><line style="stroke:#181818;stroke-width:1;" x1="43.9551" x2="266.5864" y1="418.5938" y2="418.5938"/><text fill="#000000" font-family="sans-serif" font-size="13" lengthAdjust="spacing" textLength="111.8457" x="55.9551" y="413.5278">Redirect to /login</text></g><!--SRC=[TP5FJyCm3CNl-HJMJjjXshq79525XCHWOXlNoakiBY9DGk8YyUr9qgwZ_CdDYT_ppo-isH0SlK8cE61yWpszzsGbGQsn3TW9WP9TW6Ea83m6rb9xj0oBUvFxRxrV04OerRnXwsphwhloN2FZ2IFDEtR1TSHdwcDfIWATPWcHXy7wPZ2jOFUyFy2cBvISXouBQfqARU8g4-gFlC408GQog_uLZIuR5jyznQYT5MXuk7XqRKiA7go0T2Rn1RcQvRCyVKAZ5Q1Lq2UrnOvMHJXHJBlcsqi1wojFCHfCLMbIz5iyXncZgHAb3DHHIYydqNHeiIrrWzutPsRVXFo5aHjsZAROZEh2C3cDMss9WvRnnxmSJ0Klf7GWcMOvs0WoSOpmoV5_gVqXDAxLLf1LujkUHV05]--></g></svg>