<?xml version="1.0" encoding="UTF-8" standalone="no"?><svg xmlns="http://www.w3.org/2000/svg" xmlns:xlink="http://www.w3.org/1999/xlink" contentStyleType="text/css" height="576px" preserveAspectRatio="none" style="width:557px;height:576px;background:#FFFFFF;" version="1.1" viewBox="0 0 557 576" width="557px" zoomAndPan="magnify"><defs/><g><rect fill="#FFFFFF" height="26.2969" id="_title" style="stroke:none;stroke-width:1.0;" width="451" x="46" y="5"/><text fill="#000000" font-family="sans-serif" font-size="14" font-weight="bold" lengthAdjust="spacing" textLength="441" x="51" y="22.9951">Professional Use Case Diagram - Task Management App</text><!--MD5=[fada93b6d2cdf68dcc35dbe4b0f968a2]
cluster Task Management System--><g id="cluster_Task Management System"><rect fill="none" height="526" rx="2.5" ry="2.5" style="stroke:#181818;stroke-width:1.0;" width="455" x="96" y="44.2969"/><text fill="#000000" font-family="sans-serif" font-size="14" font-weight="bold" lengthAdjust="spacing" textLength="206" x="220.5" y="59.292">Task Management System</text></g><g id="elem_UC1"><ellipse cx="189.0398" cy="220.2007" fill="#FFFFFF" rx="45.5398" ry="12.9038" style="stroke:#000000;stroke-width:0.5;"/><text fill="#000000" font-family="sans-serif" font-size="12" lengthAdjust="spacing" textLength="48" x="162.8447" y="222.866">Sign Up</text></g><g id="elem_UC2"><ellipse cx="189.1482" cy="281.1743" fill="#FFFFFF" rx="37.6482" ry="12.8774" style="stroke:#000000;stroke-width:0.5;"/><text fill="#000000" font-family="sans-serif" font-size="12" lengthAdjust="spacing" textLength="37" x="170.6482" y="283.3286">Log In</text></g><g id="elem_UC3"><ellipse cx="188.7979" cy="406.4564" fill="#FFFFFF" rx="58.7979" ry="14.1596" style="stroke:#000000;stroke-width:0.5;"/><text fill="#000000" font-family="sans-serif" font-size="12" lengthAdjust="spacing" textLength="75" x="150.5027" y="408.8088">Create Task</text></g><g id="elem_UC4"><ellipse cx="189.2221" cy="469.4413" fill="#FFFFFF" rx="56.2221" ry="13.6444" style="stroke:#000000;stroke-width:0.5;"/><text fill="#000000" font-family="sans-serif" font-size="12" lengthAdjust="spacing" textLength="68" x="152.8459" y="472.1399">View Tasks</text></g><g id="elem_UC5"><ellipse cx="189.2279" cy="536.1425" fill="#FFFFFF" rx="77.2279" ry="17.8456" style="stroke:#000000;stroke-width:0.5;"/><text fill="#000000" font-family="sans-serif" font-size="12" lengthAdjust="spacing" textLength="119" x="129.7279" y="538.2968">Mark Task as Done</text></g><g id="elem_UC6"><ellipse cx="188.9176" cy="343.3804" fill="#FFFFFF" rx="58.4176" ry="14.0835" style="stroke:#000000;stroke-width:0.5;"/><text fill="#000000" font-family="sans-serif" font-size="12" lengthAdjust="spacing" textLength="74" x="150.9057" y="345.7839">Delete Task</text></g><g id="elem_UC7"><ellipse cx="189.0398" cy="159.2007" fill="#FFFFFF" rx="45.5398" ry="12.9038" style="stroke:#000000;stroke-width:0.5;"/><text fill="#000000" font-family="sans-serif" font-size="12" lengthAdjust="spacing" textLength="48" x="162.8447" y="161.866">Log Out</text></g><g id="elem_UC8"><ellipse cx="188.8081" cy="95.1585" fill="#FFFFFF" rx="67.3081" ry="15.8616" style="stroke:#000000;stroke-width:0.5;"/><text fill="#000000" font-family="sans-serif" font-size="12" lengthAdjust="spacing" textLength="96" x="140.8081" y="97.3128">Monitor Metrics</text></g><g id="elem_UC9"><ellipse cx="462.2018" cy="377.3372" fill="#FFFFFF" rx="70.7018" ry="16.5404" style="stroke:#000000;stroke-width:0.5;"/><text fill="#000000" font-family="sans-serif" font-size="12" lengthAdjust="spacing" textLength="104" x="410.2018" y="379.4915">Validate Session</text></g><g id="elem_UC10"><ellipse cx="461.8555" cy="519.268" fill="#FFFFFF" rx="72.8555" ry="16.9711" style="stroke:#000000;stroke-width:0.5;"/><text fill="#000000" font-family="sans-serif" font-size="12" lengthAdjust="spacing" textLength="109" x="407.3555" y="521.4223">Notify Completion</text></g><!--MD5=[97ab183161fd5d1db7fba7485cf76add]
entity Admin--><g id="elem_Admin"><ellipse cx="27.5" cy="65.7969" fill="#F1F1F1" rx="8" ry="8" style="stroke:#181818;stroke-width:0.5;"/><path d="M27.5,73.7969 L27.5,100.7969 M14.5,81.7969 L40.5,81.7969 M27.5,100.7969 L14.5,115.7969 M27.5,100.7969 L40.5,115.7969 " fill="none" style="stroke:#181818;stroke-width:0.5;"/><text fill="#000000" font-family="sans-serif" font-size="14" lengthAdjust="spacing" textLength="43" x="6" y="130.292">Admin</text></g><!--MD5=[fee662a292a0353a69bd162820bae93b]
entity User--><g id="elem_User"><ellipse cx="27.5" cy="313.7969" fill="#F1F1F1" rx="8" ry="8" style="stroke:#181818;stroke-width:0.5;"/><path d="M27.5,321.7969 L27.5,348.7969 M14.5,329.7969 L40.5,329.7969 M27.5,348.7969 L14.5,363.7969 M27.5,348.7969 L40.5,363.7969 " fill="none" style="stroke:#181818;stroke-width:0.5;"/><text fill="#000000" font-family="sans-serif" font-size="14" lengthAdjust="spacing" textLength="32" x="11.5" y="378.292">User</text></g><!--MD5=[57bf3159251ba6d788e56222dd11fdd6]
link User to UC1--><g id="link_User_UC1"><path d="M43.56,307.8869 C53.54,288.3269 68.42,265.0769 88,250.2969 C103.74,238.4169 124.15,231.2169 142.43,226.8669 " fill="none" id="User-to-UC1" style="stroke:#000000;stroke-width:1.0;"/><polygon fill="#000000" points="147.53,225.7169,137.8659,223.8183,142.6552,226.8287,139.6448,231.618,147.53,225.7169" style="stroke:#000000;stroke-width:1.0;"/></g><!--MD5=[06ebee4cbbe132cc9038a23578b440b9]
link User to UC2--><g id="link_User_UC2"><path d="M43.79,334.3569 C55.6,327.6869 72.49,318.6769 88,312.2969 C109.23,303.5569 133.85,295.8969 153.35,290.3769 " fill="none" id="User-to-UC2" style="stroke:#000000;stroke-width:1.0;"/><polygon fill="#000000" points="158.19,289.0169,148.4462,287.582,153.3738,290.3603,150.5956,295.2879,158.19,289.0169" style="stroke:#000000;stroke-width:1.0;"/></g><!--MD5=[7128cd1693f5ac5e48a097ae8b02564a]
link User to UC3--><g id="link_User_UC3"><path d="M43.76,352.5669 C55.54,359.4569 72.42,368.7669 88,375.2969 C105.77,382.7469 125.98,389.3469 143.55,394.5169 " fill="none" id="User-to-UC3" style="stroke:#000000;stroke-width:1.0;"/><polygon fill="#000000" points="148.44,395.9369,140.8976,389.6035,143.6351,394.5539,138.6847,397.2914,148.44,395.9369" style="stroke:#000000;stroke-width:1.0;"/></g><!--MD5=[4ce996a24f59d1a51dc827afbab411c4]
link User to UC4--><g id="link_User_UC4"><path d="M43.68,379.8669 C53.62,399.7269 68.41,423.2269 88,438.2969 C101.97,449.0469 119.7,456.0969 136.34,460.7169 " fill="none" id="User-to-UC4" style="stroke:#000000;stroke-width:1.0;"/><polygon fill="#000000" points="141.47,462.0669,133.7807,455.9126,136.6339,460.7972,131.7493,463.6504,141.47,462.0669" style="stroke:#000000;stroke-width:1.0;"/></g><!--MD5=[ded8ba90975cb89afbb8aa34a82599c8]
link User to UC5--><g id="link_User_UC5"><path d="M33.74,381.5169 C40.48,416.7569 55.48,468.3069 88,500.2969 C98.19,510.3169 111.38,517.5769 124.81,522.8169 " fill="none" id="User-to-UC5" style="stroke:#000000;stroke-width:1.0;"/><polygon fill="#000000" points="129.76,524.6569,122.7191,517.7703,125.0737,522.9138,119.9301,525.2684,129.76,524.6569" style="stroke:#000000;stroke-width:1.0;"/></g><!--MD5=[c3cbf0c63ed82a5d0a0584885332cee8]
link User to UC6--><g id="link_User_UC6"><path d="M43.51,343.2969 C62.2,343.2969 95.32,343.2969 125.14,343.2969 " fill="none" id="User-to-UC6" style="stroke:#000000;stroke-width:1.0;"/><polygon fill="#000000" points="130.28,343.2969,121.28,339.2969,125.28,343.2969,121.28,347.2969,130.28,343.2969" style="stroke:#000000;stroke-width:1.0;"/></g><!--MD5=[5a2cfe3801774c699a4d0ee8e3ef548b]
link User to UC7--><g id="link_User_UC7"><path d="M33.62,305.0669 C40.27,270.2069 55.19,219.6669 88,189.2969 C102.29,176.0769 122.19,168.6669 140.48,164.5169 " fill="none" id="User-to-UC7" style="stroke:#000000;stroke-width:1.0;"/><polygon fill="#000000" points="145.59,163.4369,135.9545,161.398,140.6995,164.4777,137.6198,169.2227,145.59,163.4369" style="stroke:#000000;stroke-width:1.0;"/></g><!--MD5=[8e21319948118d853d0cea7b7746d788]
link Admin to UC8--><g id="link_Admin_UC8"><path d="M49.03,95.2969 C66.15,95.2969 91.62,95.2969 116.09,95.2969 " fill="none" id="Admin-to-UC8" style="stroke:#000000;stroke-width:1.0;"/><polygon fill="#000000" points="121.3,95.2969,112.3,91.2969,116.3,95.2969,112.3,99.2969,121.3,95.2969" style="stroke:#000000;stroke-width:1.0;"/></g><!--MD5=[26e80278f6660e9e2e60dd868e91f3d3]
link UC3 to UC9--><g id="link_UC3_UC9"><path d="M234.18,397.1869 C253.14,393.5869 275.58,389.7369 296,387.2969 C325.64,383.7569 358.44,381.4369 386.93,379.9369 " fill="none" id="UC3-to-UC9" style="stroke:#000000;stroke-width:1.0;stroke-dasharray:7.0,7.0;"/><polygon fill="#000000" points="392.2,379.6669,383.0064,376.1344,387.2066,379.9237,383.4173,384.1238,392.2,379.6669" style="stroke:#000000;stroke-width:1.0;"/><text fill="#000000" font-family="sans-serif" font-size="13" lengthAdjust="spacing" textLength="61" x="297" y="377.3638">«include»</text></g><!--MD5=[553f9b986593943f6e01085dcf166857]
link UC4 to UC9--><g id="link_UC4_UC9"><path d="M222.42,458.4169 C256.45,446.9869 311.51,428.4569 359,412.2969 C377.79,405.9069 398.52,398.7969 416.35,392.6769 " fill="none" id="UC4-to-UC9" style="stroke:#000000;stroke-width:1.0;stroke-dasharray:7.0,7.0;"/><polygon fill="#000000" points="421.3,390.9769,411.488,390.1256,416.5725,392.6051,414.0931,397.6896,421.3,390.9769" style="stroke:#000000;stroke-width:1.0;"/><text fill="#000000" font-family="sans-serif" font-size="13" lengthAdjust="spacing" textLength="61" x="297" y="408.3638">«include»</text></g><!--MD5=[987d054697df763fb7c1b557c5f7d855]
link UC5 to UC9--><g id="link_UC5_UC9"><path d="M229.56,520.8269 C264.66,506.3969 316.79,483.2469 359,457.2969 C388.48,439.1769 419.34,413.9669 439.29,396.7169 " fill="none" id="UC5-to-UC9" style="stroke:#000000;stroke-width:1.0;stroke-dasharray:7.0,7.0;"/><polygon fill="#000000" points="443.13,393.3769,433.7165,396.2729,439.36,396.6613,438.9716,402.3048,443.13,393.3769" style="stroke:#000000;stroke-width:1.0;"/><text fill="#000000" font-family="sans-serif" font-size="13" lengthAdjust="spacing" textLength="61" x="297" y="453.3638">«include»</text></g><!--MD5=[3e61ca714741f5c2c14a79d2402477e0]
link UC6 to UC9--><g id="link_UC6_UC9"><path d="M246.53,345.8569 C279.45,347.7969 321.7,351.0469 359,356.2969 C374.44,358.4669 391.06,361.5669 406.3,364.7069 " fill="none" id="UC6-to-UC9" style="stroke:#000000;stroke-width:1.0;stroke-dasharray:7.0,7.0;"/><polygon fill="#000000" points="411.41,365.7769,403.4271,360.0086,406.5173,364.7468,401.779,367.837,411.41,365.7769" style="stroke:#000000;stroke-width:1.0;"/><text fill="#000000" font-family="sans-serif" font-size="13" lengthAdjust="spacing" textLength="61" x="297" y="345.3638">«include»</text></g><!--MD5=[c5253a994e4596ea8c99fba8c18960d1]
link UC5 to UC10--><g id="link_UC5_UC10"><path d="M263.69,531.6769 C296.69,529.6069 335.9,527.1469 370.65,524.9669 " fill="none" id="UC5-to-UC10" style="stroke:#000000;stroke-width:1.0;"/><polygon fill="none" points="370.66,517.9469,391.05,523.6869,371.53,531.9269,370.66,517.9469" style="stroke:#000000;stroke-width:1.0;"/><text fill="#000000" font-family="sans-serif" font-size="13" lengthAdjust="spacing" textLength="60" x="297.5" y="521.3638">«extend»</text></g><!--MD5=[294ea094d284177a143c137c96b6638e]
@startuml
left to right direction
skinparam backgroundColor white
skinparam usecase {
  BackgroundColor white
  BorderColor Black
  ArrowColor Black
  FontSize 12
}

title Professional Use Case Diagram - Task Management App

actor "Admin" as Admin
actor "User" as User

' Generalization: Admin and BasicUser are types of Users



rectangle "Task Management System" {

  usecase "Sign Up" as UC1
  usecase "Log In" as UC2
  usecase "Create Task" as UC3
  usecase "View Tasks" as UC4
  usecase "Mark Task as Done" as UC5
  usecase "Delete Task" as UC6
  usecase "Log Out" as UC7
  usecase "Monitor Metrics" as UC8
  usecase "Validate Session" as UC9
  usecase "Notify Completion" as UC10

  ' Associations
  User - -> UC1
  User - -> UC2
  User - -> UC3
  User - -> UC4
  User - -> UC5
  User - -> UC6
  User - -> UC7

  ' Admin has special access
  Admin - -> UC8

  ' Include: Validate session is part of every secure action
  UC3 ..> UC9 : <<include>>
  UC4 ..> UC9 : <<include>>
  UC5 ..> UC9 : <<include>>
  UC6 ..> UC9 : <<include>>

  ' Extend: Notify user only if task marked done
  UC5 - -|> UC10 : <<extend>>
}
@enduml

@startuml
left to right direction
skinparam backgroundColor white
skinparam usecase {
  BackgroundColor white
  BorderColor Black
  ArrowColor Black
  FontSize 12
}

title Professional Use Case Diagram - Task Management App

actor "Admin" as Admin
actor "User" as User




rectangle "Task Management System" {

  usecase "Sign Up" as UC1
  usecase "Log In" as UC2
  usecase "Create Task" as UC3
  usecase "View Tasks" as UC4
  usecase "Mark Task as Done" as UC5
  usecase "Delete Task" as UC6
  usecase "Log Out" as UC7
  usecase "Monitor Metrics" as UC8
  usecase "Validate Session" as UC9
  usecase "Notify Completion" as UC10

  User - -> UC1
  User - -> UC2
  User - -> UC3
  User - -> UC4
  User - -> UC5
  User - -> UC6
  User - -> UC7

  Admin - -> UC8

  UC3 ..> UC9 : <<include>>
  UC4 ..> UC9 : <<include>>
  UC5 ..> UC9 : <<include>>
  UC6 ..> UC9 : <<include>>

  UC5 - -|> UC10 : <<extend>>
}
@enduml

PlantUML version 1.2022.7(Mon Aug 22 17:01:30 UTC 2022)
(GPL source distribution)
Java Runtime: OpenJDK Runtime Environment
JVM: OpenJDK 64-Bit Server VM
Default Encoding: UTF-8
Language: en
Country: null
--></g></svg>