<svg xmlns="http://www.w3.org/2000/svg" xmlns:xlink="http://www.w3.org/1999/xlink" contentStyleType="text/css" data-diagram-type="DESCRIPTION" height="772px" preserveAspectRatio="none" style="width:665px;height:772px;background:#FFFFFF;" version="1.1" viewBox="0 0 665 772" width="665px" zoomAndPan="magnify"><defs/><g><g class="cluster" data-entity="##4" data-source-line="12" data-uid="ent0005" id="cluster_##4"><rect fill="none" height="608" rx="2.5" ry="2.5" style="stroke:#181818;stroke-width:1;" width="484.95" x="174.68" y="152.41"/></g><!--entity SignUp--><g class="entity" data-entity="SignUp" data-source-line="13" data-uid="ent0006" id="entity_SignUp"><ellipse cx="287.2019" cy="665.4136" fill="#F5F5F5" rx="38.1219" ry="14.5236" style="stroke:#333333;stroke-width:0.5;"/><text fill="#000000" font-family="sans-serif" font-size="14" lengthAdjust="spacing" textLength="49.6699" x="262.367" y="670.0621">SignUp</text></g><!--entity Login--><g class="entity" data-entity="Login" data-source-line="14" data-uid="ent0007" id="entity_Login"><ellipse cx="576.1804" cy="606.4136" fill="#F5F5F5" rx="29.8804" ry="14.5236" style="stroke:#333333;stroke-width:0.5;"/><text fill="#000000" font-family="sans-serif" font-size="14" lengthAdjust="spacing" textLength="38.0146" x="557.1731" y="611.0621">Login</text></g><!--entity Logout--><g class="entity" data-entity="Logout" data-source-line="15" data-uid="ent0008" id="entity_Logout"><ellipse cx="287.1982" cy="183.4136" fill="#F5F5F5" rx="37.0682" ry="14.5236" style="stroke:#333333;stroke-width:0.5;"/><text fill="#000000" font-family="sans-serif" font-size="14" lengthAdjust="spacing" textLength="48.1797" x="263.1083" y="188.0621">Logout</text></g><!--entity ViewDashboard--><g class="entity" data-entity="ViewDashboard" data-source-line="16" data-uid="ent0009" id="entity_ViewDashboard"><ellipse cx="287.1972" cy="598.4074" fill="#F5F5F5" rx="73.1372" ry="17.0274" style="stroke:#333333;stroke-width:0.5;"/><text fill="#000000" font-family="sans-serif" font-size="14" lengthAdjust="spacing" textLength="114.1807" x="230.1069" y="603.0559">View Dashboard</text></g><!--entity ManageTasks--><g class="entity" data-entity="ManageTasks" data-source-line="17" data-uid="ent0010" id="entity_ManageTasks"><ellipse cx="576.1836" cy="378.4107" fill="#F5F5F5" rx="67.4536" ry="15.8907" style="stroke:#333333;stroke-width:0.5;"/><text fill="#000000" font-family="sans-serif" font-size="14" lengthAdjust="spacing" textLength="99.8867" x="526.2402" y="383.0592">Manage Tasks</text></g><!--entity AddTask--><g class="entity" data-entity="AddTask" data-source-line="18" data-uid="ent0011" id="entity_AddTask"><ellipse cx="287.2003" cy="247.4136" fill="#F5F5F5" rx="48.4903" ry="14.5236" style="stroke:#333333;stroke-width:0.5;"/><text fill="#000000" font-family="sans-serif" font-size="14" lengthAdjust="spacing" textLength="64.333" x="255.0338" y="252.0621">Add Task</text></g><!--entity UpdateTask--><g class="entity" data-entity="UpdateTask" data-source-line="19" data-uid="ent0012" id="entity_UpdateTask"><ellipse cx="287.2004" cy="531.4101" fill="#F5F5F5" rx="62.8504" ry="14.9701" style="stroke:#333333;stroke-width:0.5;"/><text fill="#000000" font-family="sans-serif" font-size="14" lengthAdjust="spacing" textLength="87.6846" x="243.3581" y="536.0585">Update Task</text></g><!--entity ViewAllTask--><g class="entity" data-entity="ViewAllTask" data-source-line="20" data-uid="ent0013" id="entity_ViewAllTask"><ellipse cx="287.1982" cy="466.4136" fill="#F5F5F5" rx="64.5682" ry="15.3136" style="stroke:#333333;stroke-width:0.5;"/><text fill="#000000" font-family="sans-serif" font-size="14" lengthAdjust="spacing" textLength="92.3193" x="241.0385" y="471.0621">View All Task</text></g><!--entity ViewCompletedTask--><g class="entity" data-entity="ViewCompletedTask" data-source-line="21" data-uid="ent0014" id="entity_ViewCompletedTask"><ellipse cx="287.2024" cy="395.4065" fill="#F5F5F5" rx="88.9324" ry="20.1865" style="stroke:#333333;stroke-width:0.5;"/><text fill="#000000" font-family="sans-serif" font-size="14" lengthAdjust="spacing" textLength="151.3203" x="211.5423" y="400.0549">View Completed Task</text></g><!--entity ViewUncompletedTask--><g class="entity" data-entity="ViewUncompletedTask" data-source-line="22" data-uid="ent0015" id="entity_ViewUncompletedTask"><ellipse cx="287.2021" cy="318.4144" fill="#F5F5F5" rx="96.5221" ry="21.7044" style="stroke:#333333;stroke-width:0.5;"/><text fill="#000000" font-family="sans-serif" font-size="14" lengthAdjust="spacing" textLength="168.3623" x="203.021" y="323.0629">View Uncompleted Task</text></g><!--entity Metrics--><g class="entity" data-entity="Metrics" data-source-line="23" data-uid="ent0016" id="entity_Metrics"><ellipse cx="287.204" cy="729.4136" fill="#F5F5F5" rx="38.934" ry="14.5236" style="stroke:#333333;stroke-width:0.5;"/><text fill="#000000" font-family="sans-serif" font-size="14" lengthAdjust="spacing" textLength="50.8184" x="261.7948" y="734.0621">Metrics</text></g><!--entity User--><g class="entity" data-entity="User" data-source-line="9" data-uid="ent0002" id="entity_User"><ellipse cx="66.8351" cy="106.76" fill="#F1F1F1" rx="8" ry="8" style="stroke:#181818;stroke-width:0.5;"/><path d="M66.8351,114.76 L66.8351,141.76 M53.8351,122.76 L79.8351,122.76 M66.8351,141.76 L53.8351,156.76 M66.8351,141.76 L79.8351,156.76" fill="none" style="stroke:#181818;stroke-width:0.5;"/><text fill="#000000" font-family="sans-serif" font-size="14" lengthAdjust="spacing" textLength="31.9102" x="50.88" y="171.2551">User</text></g><!--entity DevOps--><g class="entity" data-entity="DevOps" data-source-line="10" data-uid="ent0003" id="entity_DevOps"><ellipse cx="66.8398" cy="699.76" fill="#F1F1F1" rx="8" ry="8" style="stroke:#181818;stroke-width:0.5;"/><path d="M66.8398,707.76 L66.8398,734.76 M53.8398,715.76 L79.8398,715.76 M66.8398,734.76 L53.8398,749.76 M66.8398,734.76 L79.8398,749.76" fill="none" style="stroke:#181818;stroke-width:0.5;"/><text fill="#000000" font-family="sans-serif" font-size="14" lengthAdjust="spacing" textLength="121.6797" x="6" y="764.2551">DevOps Engineer</text></g><!--link User to SignUp--><g class="link" data-entity-1="User" data-entity-2="SignUp" data-source-line="25" data-uid="lnk17" id="link_User_SignUp"><path d="M70.34,174.86 C77.91,279.58 104.05,566.56 166.68,633.41 C187.53,655.67 222.03,663.08 248.61,665.27" fill="none" id="User-SignUp" style="stroke:#3C3C3C;stroke-width:1;"/></g><!--link User to Login--><g class="link" data-entity-1="User" data-entity-2="Login" data-source-line="26" data-uid="lnk18" id="link_User_Login"><path d="M83.11,132.96 C130.78,123 279.88,98.22 383.72,151.41 C497.84,209.86 474.91,287.73 508.72,411.41 C527.5,480.06 557.24,559.81 569.55,591.92" fill="none" id="User-Login" style="stroke:#3C3C3C;stroke-width:1;"/></g><!--link User to Logout--><g class="link" data-entity-1="User" data-entity-2="Logout" data-source-line="27" data-uid="lnk19" id="link_User_Logout"><path d="M83.19,139.71 C118.53,147.32 206.23,166.2 253.98,176.47" fill="none" id="User-Logout" style="stroke:#3C3C3C;stroke-width:1;"/></g><!--link User to ManageTasks--><g class="link" data-entity-1="User" data-entity-2="ManageTasks" data-source-line="28" data-uid="lnk20" id="link_User_ManageTasks"><path d="M83.13,125.44 C100.31,113.86 129.47,96.34 157.68,89.41 C296.24,55.35 362.96,6 478.72,89.41 C570.13,155.27 576.2,311.6 575.66,362.26" fill="none" id="User-ManageTasks" style="stroke:#3C3C3C;stroke-width:1;"/></g><!--link SignUp to Login--><g class="link" data-entity-1="SignUp" data-entity-2="Login" data-source-line="30" data-uid="lnk21" id="link_SignUp_Login"><path d="M323.94,661.26 C362.44,656.44 425.35,647.58 478.72,635.41 C503.79,629.7 526.1712,622.8571 545.5412,616.4771" fill="none" id="SignUp-to-Login" style="stroke:#3C3C3C;stroke-width:1;stroke-dasharray:7.0,7.0;"/><polygon fill="#3C3C3C" points="551.24,614.6,541.4404,613.6164,546.491,616.1642,543.9431,621.2148,551.24,614.6" style="stroke:#3C3C3C;stroke-width:1;"/><text fill="#000000" font-family="sans-serif" font-size="13" lengthAdjust="spacing" textLength="63.0068" x="414.72" y="631.4769">&#171;include&#187;</text></g><!--reverse link ViewDashboard to Login--><g class="link" data-entity-1="ViewDashboard" data-entity-2="Login" data-source-line="31" data-uid="lnk23" id="link_ViewDashboard_Login"><path d="M360.5566,605.8496 C379.6266,607.5396 394.49,608.57 413.72,609.41 C442.59,610.67 449.84,609.86 478.72,609.41 C501.34,609.06 526.92,608.24 546.06,607.55" fill="none" id="ViewDashboard-backto-Login" style="stroke:#3C3C3C;stroke-width:1;stroke-dasharray:7.0,7.0;"/><polygon fill="#3C3C3C" points="354.58,605.32,363.1918,610.0989,359.5605,605.7614,363.898,602.1301,354.58,605.32" style="stroke:#3C3C3C;stroke-width:1;"/><text fill="#000000" font-family="sans-serif" font-size="13" lengthAdjust="spacing" textLength="63.0068" x="414.72" y="605.4769">&#171;include&#187;</text></g><!--link ViewDashboard to ManageTasks--><g class="link" data-entity-1="ViewDashboard" data-entity-2="ManageTasks" data-source-line="32" data-uid="lnk24" id="link_ViewDashboard_ManageTasks"><path d="M336.86,585.52 C378.24,572.63 437.38,549.49 478.72,513.41 C519.53,477.81 549.5919,426.9817 564.1819,399.6817" fill="none" id="ViewDashboard-to-ManageTasks" style="stroke:#3C3C3C;stroke-width:1;stroke-dasharray:7.0,7.0;"/><polygon fill="#3C3C3C" points="567.01,394.39,559.2401,400.4422,564.6533,398.7998,566.2957,404.2129,567.01,394.39" style="stroke:#3C3C3C;stroke-width:1;"/><text fill="#000000" font-family="sans-serif" font-size="13" lengthAdjust="spacing" textLength="63.0068" x="414.72" y="509.4769">&#171;include&#187;</text></g><!--link AddTask to ManageTasks--><g class="link" data-entity-1="AddTask" data-entity-2="ManageTasks" data-source-line="34" data-uid="lnk25" id="link_AddTask_ManageTasks"><path d="M321.6,257.84 C340.05,263.79 363.3,271.6 383.72,279.41 C426.68,295.84 437.82,299.4 478.72,320.41 C504.45,333.62 517.4958,341.2579 536.7258,353.5279" fill="none" id="AddTask-to-ManageTasks" style="stroke:#3C3C3C;stroke-width:1;"/><polygon fill="none" points="551.9,363.21,539.9532,348.4698,533.4984,358.5859,551.9,363.21" style="stroke:#3C3C3C;stroke-width:1;"/><text fill="#000000" font-family="sans-serif" font-size="13" lengthAdjust="spacing" textLength="61.1851" x="415.72" y="288.4769">&#171;extend&#187;</text></g><!--link UpdateTask to ManageTasks--><g class="link" data-entity-1="UpdateTask" data-entity-2="ManageTasks" data-source-line="35" data-uid="lnk26" id="link_UpdateTask_ManageTasks"><path d="M326.61,519.45 C344.16,513.75 365.13,506.62 383.72,499.41 C426.77,482.73 439.4,481.59 478.72,457.41 C509.15,438.7 527.2453,423.5549 545.6353,406.4349" fill="none" id="UpdateTask-to-ManageTasks" style="stroke:#3C3C3C;stroke-width:1;"/><polygon fill="none" points="558.81,394.17,541.547,402.0433,549.7236,410.8264,558.81,394.17" style="stroke:#3C3C3C;stroke-width:1;"/><text fill="#000000" font-family="sans-serif" font-size="13" lengthAdjust="spacing" textLength="61.1851" x="415.72" y="453.4769">&#171;extend&#187;</text></g><!--link ViewAllTask to ManageTasks--><g class="link" data-entity-1="ViewAllTask" data-entity-2="ManageTasks" data-source-line="36" data-uid="lnk27" id="link_ViewAllTask_ManageTasks"><path d="M332.38,455.15 C371.17,445.02 429.02,429.32 478.72,413.41 C499.08,406.89 504.6884,405.0998 522.8084,398.3298" fill="none" id="ViewAllTask-to-ManageTasks" style="stroke:#3C3C3C;stroke-width:1;"/><polygon fill="none" points="539.67,392.03,520.7085,392.7093,524.9084,403.9503,539.67,392.03" style="stroke:#3C3C3C;stroke-width:1;"/><text fill="#000000" font-family="sans-serif" font-size="13" lengthAdjust="spacing" textLength="61.1851" x="415.72" y="409.4769">&#171;extend&#187;</text></g><!--link ViewCompletedTask to ManageTasks--><g class="link" data-entity-1="ViewCompletedTask" data-entity-2="ManageTasks" data-source-line="37" data-uid="lnk28" id="link_ViewCompletedTask_ManageTasks"><path d="M373.53,390.36 C417.31,387.76 451.8213,385.7117 492.2713,383.3217" fill="none" id="ViewCompletedTask-to-ManageTasks" style="stroke:#3C3C3C;stroke-width:1;"/><polygon fill="none" points="510.24,382.26,491.9174,377.3321,492.6252,389.3112,510.24,382.26" style="stroke:#3C3C3C;stroke-width:1;"/><text fill="#000000" font-family="sans-serif" font-size="13" lengthAdjust="spacing" textLength="61.1851" x="415.72" y="380.4769">&#171;extend&#187;</text></g><!--link ViewUncompletedTask to ManageTasks--><g class="link" data-entity-1="ViewUncompletedTask" data-entity-2="ManageTasks" data-source-line="38" data-uid="lnk29" id="link_ViewUncompletedTask_ManageTasks"><path d="M359.14,333.24 C410.43,343.96 460.8811,354.5158 506.7911,364.1158" fill="none" id="ViewUncompletedTask-to-ManageTasks" style="stroke:#3C3C3C;stroke-width:1;"/><polygon fill="none" points="524.41,367.8,508.0191,358.2428,505.563,369.9888,524.41,367.8" style="stroke:#3C3C3C;stroke-width:1;"/><text fill="#000000" font-family="sans-serif" font-size="13" lengthAdjust="spacing" textLength="61.1851" x="415.72" y="341.4769">&#171;extend&#187;</text></g><!--link DevOps to Metrics--><g class="link" data-entity-1="DevOps" data-entity-2="Metrics" data-source-line="40" data-uid="lnk30" id="link_DevOps_Metrics"><path d="M128.09,729.41 C166.34,729.41 214.69,729.41 247.79,729.41" fill="none" id="DevOps-Metrics" style="stroke:#3C3C3C;stroke-width:1;"/></g><!--SRC=[bPF1Ry8W5CRl_IjUtBbUbbqMO-9qjvaTN7TdyAn4109qRjdytmUqjiLgd70ft_j-yC971QuTE0M6bni7Z1kaZYkPsIsNcXYo0qtebfIuSjy28PI9B0Ns39L5IYp2JmRmvCsbKPLaSoMKWRlrGvYXeWn3qwZtSNXrPepQ7qKQPdR8CaAT5mgBflaSBV3pLLjubYMNY6O4n4AjPLdR4yGMe6renKjPw4HwKNw3KqLLBf56xnpti21syw68OV6m8BLAwbuIwUy7teZTskYjXRXEdJF6eYsw_29yfuv2C-AmCzNheIzsE1EYSmR52nUiSxNJ0Xso56Zb2rWXwNcmLnYWItI6KnzC44E8K8yyxoUI5hfS1lendRJGl-DOhhUEvV5uMcy8tNY4oOHBAYg6qsa4UevnfJsIH7mMENKqP_Lw6M2HQwA6PEJvRue64BySIjOSruL_4zPx2RTYoNluFtRo6gvXaMl-w6ESpPiv_040]--></g></svg>