<svg xmlns="http://www.w3.org/2000/svg" xmlns:xlink="http://www.w3.org/1999/xlink" contentStyleType="text/css" data-diagram-type="SEQUENCE" height="482px" preserveAspectRatio="none" style="width:731px;height:482px;background:#FFFFFF;" version="1.1" viewBox="0 0 731 482" width="731px" zoomAndPan="magnify"><title>View Task Details Sequence Diagram</title><defs/><g><text fill="#000000" font-family="sans-serif" font-size="14" font-weight="bold" lengthAdjust="spacing" textLength="293.0361" x="220.4087" y="27.9951">View Task Details Sequence Diagram</text><g><title>Flask App</title><rect fill="#FFFFFF" height="241.7344" style="stroke:#181818;stroke-width:1;" width="10" x="283.5488" y="149.7266"/></g><g><title>MongoDB</title><rect fill="#FFFFFF" height="29.1328" style="stroke:#181818;stroke-width:1;" width="10" x="489.1978" y="245.125"/></g><rect fill="none" height="177.6016" style="stroke:#000000;stroke-width:1.5;" width="714.8535" x="10" y="206.8594"/><g><title>User</title><rect fill="#000000" fill-opacity="0.00000" height="282.8672" width="8" x="34.9551" y="118.5938"/><line style="stroke:#181818;stroke-width:0.5;stroke-dasharray:5.0,5.0;" x1="38" x2="38" y1="118.5938" y2="401.4609"/></g><g><title>Flask App</title><rect fill="#000000" fill-opacity="0.00000" height="282.8672" width="8" x="284.5488" y="118.5938"/><line style="stroke:#181818;stroke-width:0.5;stroke-dasharray:5.0,5.0;" x1="287.687" x2="287.687" y1="118.5938" y2="401.4609"/></g><g><title>MongoDB</title><rect fill="#000000" fill-opacity="0.00000" height="282.8672" width="8" x="490.1978" y="118.5938"/><line style="stroke:#181818;stroke-width:0.5;stroke-dasharray:5.0,5.0;" x1="493.5205" x2="493.5205" y1="118.5938" y2="401.4609"/></g><g><title>Prometheus</title><rect fill="#000000" fill-opacity="0.00000" height="282.8672" width="8" x="661.7749" y="118.5938"/><line style="stroke:#181818;stroke-width:0.5;stroke-dasharray:5.0,5.0;" x1="665.6963" x2="665.6963" y1="118.5938" y2="401.4609"/></g><g class="participant participant-head" data-participant="User"><text fill="#000000" font-family="sans-serif" font-size="14" lengthAdjust="spacing" textLength="31.9102" x="20" y="115.292">User</text><ellipse cx="38.9551" cy="50.7969" fill="#E2E2F0" rx="8" ry="8" style="stroke:#181818;stroke-width:0.5;"/><path d="M38.9551,58.7969 L38.9551,85.7969 M25.9551,66.7969 L51.9551,66.7969 M38.9551,85.7969 L25.9551,100.7969 M38.9551,85.7969 L51.9551,100.7969" fill="none" style="stroke:#181818;stroke-width:0.5;"/></g><g class="participant participant-tail" data-participant="User"><text fill="#000000" font-family="sans-serif" font-size="14" lengthAdjust="spacing" textLength="31.9102" x="20" y="413.4561">User</text><ellipse cx="38.9551" cy="425.2578" fill="#E2E2F0" rx="8" ry="8" style="stroke:#181818;stroke-width:0.5;"/><path d="M38.9551,433.2578 L38.9551,460.2578 M25.9551,441.2578 L51.9551,441.2578 M38.9551,460.2578 L25.9551,475.2578 M38.9551,460.2578 L51.9551,475.2578" fill="none" style="stroke:#181818;stroke-width:0.5;"/></g><g class="participant participant-head" data-participant="Flask"><rect fill="#E2E2F0" height="30.2969" rx="2.5" ry="2.5" style="stroke:#181818;stroke-width:0.5;" width="81.7236" x="247.687" y="87.2969"/><text fill="#000000" font-family="sans-serif" font-size="14" lengthAdjust="spacing" textLength="67.7236" x="254.687" y="107.292">Flask App</text></g><g class="participant participant-tail" data-participant="Flask"><rect fill="#E2E2F0" height="30.2969" rx="2.5" ry="2.5" style="stroke:#181818;stroke-width:0.5;" width="81.7236" x="247.687" y="400.4609"/><text fill="#000000" font-family="sans-serif" font-size="14" lengthAdjust="spacing" textLength="67.7236" x="254.687" y="420.4561">Flask App</text></g><g class="participant participant-head" data-participant="Database"><rect fill="#E2E2F0" height="30.2969" rx="2.5" ry="2.5" style="stroke:#181818;stroke-width:0.5;" width="81.3545" x="453.5205" y="87.2969"/><text fill="#000000" font-family="sans-serif" font-size="14" lengthAdjust="spacing" textLength="67.3545" x="460.5205" y="107.292">MongoDB</text></g><g class="participant participant-tail" data-participant="Database"><rect fill="#E2E2F0" height="30.2969" rx="2.5" ry="2.5" style="stroke:#181818;stroke-width:0.5;" width="81.3545" x="453.5205" y="400.4609"/><text fill="#000000" font-family="sans-serif" font-size="14" lengthAdjust="spacing" textLength="67.3545" x="460.5205" y="420.4561">MongoDB</text></g><g class="participant participant-head" data-participant="Monitor"><rect fill="#E2E2F0" height="30.2969" rx="2.5" ry="2.5" style="stroke:#181818;stroke-width:0.5;" width="98.1572" x="616.6963" y="87.2969"/><text fill="#000000" font-family="sans-serif" font-size="14" lengthAdjust="spacing" textLength="84.1572" x="623.6963" y="107.292">Prometheus</text></g><g class="participant participant-tail" data-participant="Monitor"><rect fill="#E2E2F0" height="30.2969" rx="2.5" ry="2.5" style="stroke:#181818;stroke-width:0.5;" width="98.1572" x="616.6963" y="400.4609"/><text fill="#000000" font-family="sans-serif" font-size="14" lengthAdjust="spacing" textLength="84.1572" x="623.6963" y="420.4561">Prometheus</text></g><g><title>Flask App</title><rect fill="#FFFFFF" height="241.7344" style="stroke:#181818;stroke-width:1;" width="10" x="283.5488" y="149.7266"/></g><g><title>MongoDB</title><rect fill="#FFFFFF" height="29.1328" style="stroke:#181818;stroke-width:1;" width="10" x="489.1978" y="245.125"/></g><g class="message" data-participant-1="User" data-participant-2="Flask"><polygon fill="#181818" points="271.5488,145.7266,281.5488,149.7266,271.5488,153.7266,275.5488,149.7266" style="stroke:#181818;stroke-width:1;"/><line style="stroke:#181818;stroke-width:1;" x1="38.9551" x2="277.5488" y1="149.7266" y2="149.7266"/><text fill="#000000" font-family="sans-serif" font-size="13" lengthAdjust="spacing" textLength="53.8345" x="45.9551" y="144.6606">GET /list</text></g><g class="message" data-participant-1="Flask" data-participant-2="Flask"><line style="stroke:#181818;stroke-width:1;" x1="293.5488" x2="335.5488" y1="178.8594" y2="178.8594"/><line style="stroke:#181818;stroke-width:1;" x1="335.5488" x2="335.5488" y1="178.8594" y2="191.8594"/><line style="stroke:#181818;stroke-width:1;" x1="294.5488" x2="335.5488" y1="191.8594" y2="191.8594"/><polygon fill="#181818" points="304.5488,187.8594,294.5488,191.8594,304.5488,195.8594,300.5488,191.8594" style="stroke:#181818;stroke-width:1;"/><text fill="#000000" font-family="sans-serif" font-size="13" lengthAdjust="spacing" textLength="140.8926" x="300.5488" y="173.7935">Validate User Session</text></g><path d="M10,206.8594 L74.4429,206.8594 L74.4429,213.9922 L64.4429,223.9922 L10,223.9922 L10,206.8594" fill="#EEEEEE" style="stroke:#000000;stroke-width:1.5;"/><rect fill="none" height="177.6016" style="stroke:#000000;stroke-width:1.5;" width="714.8535" x="10" y="206.8594"/><text fill="#000000" font-family="sans-serif" font-size="13" font-weight="bold" lengthAdjust="spacing" textLength="19.4429" x="25" y="219.9263">alt</text><text fill="#000000" font-family="sans-serif" font-size="11" font-weight="bold" lengthAdjust="spacing" textLength="103.6514" x="89.4429" y="219.0698">[User Logged In]</text><g class="message" data-participant-1="Flask" data-participant-2="Database"><polygon fill="#181818" points="477.1978,241.125,487.1978,245.125,477.1978,249.125,481.1978,245.125" style="stroke:#181818;stroke-width:1;"/><line style="stroke:#181818;stroke-width:1;" x1="293.5488" x2="483.1978" y1="245.125" y2="245.125"/><text fill="#000000" font-family="sans-serif" font-size="13" lengthAdjust="spacing" textLength="176.6489" x="300.5488" y="240.0591">Fetch Tasks (by username)</text></g><g class="message" data-participant-1="Database" data-participant-2="Flask"><polygon fill="#181818" points="304.5488,270.2578,294.5488,274.2578,304.5488,278.2578,300.5488,274.2578" style="stroke:#181818;stroke-width:1;"/><line style="stroke:#181818;stroke-width:1;stroke-dasharray:2.0,2.0;" x1="298.5488" x2="493.1978" y1="274.2578" y2="274.2578"/><text fill="#000000" font-family="sans-serif" font-size="13" lengthAdjust="spacing" textLength="105.1489" x="310.5488" y="269.1919">Return Task List</text></g><g class="message" data-participant-1="Flask" data-participant-2="Monitor"><polygon fill="#181818" points="653.7749,299.3906,663.7749,303.3906,653.7749,307.3906,657.7749,303.3906" style="stroke:#181818;stroke-width:1;"/><line style="stroke:#181818;stroke-width:1;" x1="293.5488" x2="659.7749" y1="303.3906" y2="303.3906"/><text fill="#000000" font-family="sans-serif" font-size="13" lengthAdjust="spacing" textLength="348.2261" x="300.5488" y="298.3247">Increment task_management_app_http_request_total</text></g><g class="message" data-participant-1="Flask" data-participant-2="User"><polygon fill="#181818" points="49.9551,328.5234,39.9551,332.5234,49.9551,336.5234,45.9551,332.5234" style="stroke:#181818;stroke-width:1;"/><line style="stroke:#181818;stroke-width:1;" x1="43.9551" x2="282.5488" y1="332.5234" y2="332.5234"/><text fill="#000000" font-family="sans-serif" font-size="13" lengthAdjust="spacing" textLength="220.5938" x="55.9551" y="327.4575">Render 'index.html' with Task List</text></g><line style="stroke:#000000;stroke-width:1;stroke-dasharray:2.0,2.0;" x1="10" x2="724.8535" y1="341.5234" y2="341.5234"/><text fill="#000000" font-family="sans-serif" font-size="11" font-weight="bold" lengthAdjust="spacing" textLength="129.5024" x="15" y="351.7339">[User Not Logged In]</text><g class="message" data-participant-1="Flask" data-participant-2="User"><polygon fill="#181818" points="49.9551,372.4609,39.9551,376.4609,49.9551,380.4609,45.9551,376.4609" style="stroke:#181818;stroke-width:1;"/><line style="stroke:#181818;stroke-width:1;" x1="43.9551" x2="282.5488" y1="376.4609" y2="376.4609"/><text fill="#000000" font-family="sans-serif" font-size="13" lengthAdjust="spacing" textLength="111.8457" x="55.9551" y="371.395">Redirect to /login</text></g><!--SRC=[TL71JiCm3BtdAwnT1eV1VGSaK1b26WYniMlbjLPhaIOXSHdyFKcwTPl4SeaSl_Vy_28icc33j8CrXayeI91rW1LzzMGgWeAnyTWfXPLO3n-1l7BeXIjsQ0Gc2vruzyvD00FawXpmOarZYuVSBb1mYu7E4M_UTYGjzI638e7ZBANIC9ZT3Q9pU7fSmwtc8CaBVwFGVfmQF1oH6zHSftvMM548R8r2BSF3qZODrV1i5CGpaW_cvh0WgTeSI82hxI_qaMMme-jC6AUFswJNGm6peuztajwR8TbbCfw0DVqlCFhOxp-F1YjF7SM89BRA3WqskIxHkR8LSQLF_nIa52kerRbEsZLvC7NSUShn-hbffTDJsB6q9wv8XtrKhrOkfNDGgzbJ5HtP-1UsOQEYlZhPAHF-0000]--></g></svg>